
<svg width="80" height="100" viewBox="0 0 80 100" fill="none" xmlns="http://www.w3.org/2000/svg">
<path d="M79.0137 1.94577L66.0814 0.0204848C65.6988 -0.0565265 65.3162 0.0974867 65.1631 0.251509L59.6535 7.49057C59.2709 7.95264 59.1944 8.56873 59.3474 9.10781C59.5005 9.64689 59.0413 10.109 58.5057 10.032L53.9908 9.03079C53.3021 8.87677 52.5369 9.10782 52.0778 9.72391L34.1715 32.8273C33.8654 33.2894 33.2532 33.4434 32.7176 33.2124L25.9071 30.1319C25.2949 29.8239 24.6062 29.9009 24.0705 30.2859L20.627 32.6733C20.0913 33.0583 19.3261 33.1354 18.7139 32.8273L17.0304 31.9802C15.9591 31.4411 14.6582 32.0572 14.3522 33.2124L13.1278 38.6801C12.8217 39.9893 13.3574 41.2985 14.5052 41.9916L17.107 43.6089L25.4479 48.7686L29.5036 51.31C30.6515 52.0031 32.1054 51.8491 33.1002 51.002L39.9107 44.9951C40.4463 44.533 41.2881 44.379 41.9003 44.7641L43.9664 45.8422C44.6551 46.2273 45.4968 46.0733 46.0325 45.5342L49.476 42.2997C50.0117 41.7606 50.8534 41.6836 51.4656 41.9916L56.5926 44.379C57.3578 44.7641 58.2761 44.533 58.8118 43.8399L61.184 40.7595L79.1667 17.5791C80.0085 16.5009 79.4728 14.8837 78.0954 14.5756L74.1163 13.6515C73.2745 13.4975 72.8919 12.4193 73.5041 11.8032L79.7024 4.02506C80.3146 3.10092 79.932 2.09979 79.0137 1.94577Z" fill="white"/>
<path d="M19.7074 48.6146C19.3248 48.3835 18.9422 48.7686 19.0952 49.1536L21.0083 54.2364C21.1613 54.6215 21.1613 55.0065 21.0848 55.3916L19.4013 62.0145C19.3248 62.4766 19.4778 62.9387 19.7839 63.1697L24.6048 66.9433C25.064 67.2513 25.6762 67.2513 26.0588 66.8663L31.1093 62.3996C31.4153 62.1685 31.798 62.0145 32.1041 61.9375L37.8432 61.3214C38.2259 61.2444 38.3789 60.7053 37.9963 60.4743L19.7074 48.6146Z" fill="white"/>
<path d="M18.0245 65.7113C17.7184 65.4803 17.2593 65.4032 16.8767 65.5573L12.821 67.5595C12.5914 67.6366 12.4384 67.8676 12.2853 68.0986L3.63828 89.5848C3.63828 89.6618 3.63828 89.6618 3.63828 89.7388C3.7148 89.8158 3.79132 89.8928 3.94437 89.8928L5.93396 89.1227C6.01048 89.1227 6.08699 89.1227 6.16351 89.1227C6.24004 89.1997 6.31656 89.3538 6.24004 89.4308L0.0417106 99.6733C-0.111334 99.9043 0.194763 100.135 0.347808 99.9043L22.7689 77.263C22.9985 77.032 23.075 76.8009 23.1515 76.4929L23.6107 70.64C23.6107 70.2549 23.4576 69.9469 23.228 69.7159L18.0245 65.7113Z" fill="white"/>
</svg>
