<svg width="1020" height="1020" viewBox="0 0 1020 1020" fill="none" xmlns="http://www.w3.org/2000/svg">
<path d="M183.023 172.389C183.933 170.169 183.413 168.379 183.163 166.609C182.313 160.649 182.363 154.649 182.483 148.659C182.513 147.409 182.713 146.109 183.083 144.919C183.713 142.869 185.023 141.369 187.323 141.269C189.393 141.179 190.763 142.469 191.493 144.229C192.183 145.889 192.713 147.669 192.973 149.439C194.423 159.319 195.963 169.199 197.063 179.119C197.693 184.859 200.033 189.079 204.343 193.059C219.813 207.369 234.863 222.139 250.093 236.699C253.223 239.699 256.483 242.559 259.923 245.709C261.683 243.459 260.963 241.249 260.873 239.249C260.083 221.809 257.393 204.569 255.103 187.289C253.473 175.039 252.573 162.729 251.623 150.409C251.383 147.309 251.833 144.199 252.953 141.299C255.443 134.819 261.693 133.609 266.273 138.819C269.533 142.529 271.653 147.009 273.543 151.549C280.633 168.479 287.113 185.649 293.173 202.979C301.983 228.189 310.563 253.489 319.253 278.739C319.833 280.429 320.133 282.249 321.993 284.679C321.993 282.239 321.993 280.719 321.993 279.209C322.083 258.309 322.173 237.409 322.273 216.519C322.293 212.339 322.403 208.169 322.933 204.009C323.413 200.219 323.243 196.569 321.623 192.839C319.123 187.079 321.723 180.669 327.013 177.959C332.133 175.339 338.283 176.919 342.063 181.829C345.913 186.829 345.713 193.309 341.083 197.619C338.863 199.689 337.793 201.699 338.023 204.689C339.343 221.919 338.533 239.199 339.143 256.449C339.773 274.069 339.713 291.689 339.953 309.309C339.953 309.859 339.953 310.399 339.993 310.939C340.273 314.399 340.513 314.769 343.933 314.339C351.143 313.439 358.333 312.419 365.503 311.309C374.113 309.989 382.683 308.369 391.363 307.599C393.433 307.419 395.183 306.559 396.973 305.659C416.633 295.829 436.233 285.869 455.393 275.089C456.343 274.559 457.303 274.019 458.323 273.639C472.093 268.509 483.343 259.009 495.983 251.919C497.913 250.839 498.213 249.709 496.553 248.169C496.023 247.679 495.523 247.139 495.003 246.629C475.503 227.789 458.133 206.999 440.183 186.749C436.443 182.539 432.633 178.389 428.913 174.159C426.003 170.849 422.903 168.229 418.353 166.999C412.393 165.389 408.963 159.419 409.863 154.019C410.743 148.759 415.143 144.559 420.123 144.219C425.593 143.849 431.383 147.589 432.253 153.129C432.933 157.489 435.303 160.269 438.073 163.179C452.833 178.729 467.143 194.699 481.523 210.599C487.343 217.029 493.533 223.119 499.583 229.399C501.393 227.819 500.253 226.659 499.913 225.629C489.803 194.429 477.273 164.309 460.723 135.889C450.283 117.949 442.413 98.7494 434.663 79.5294C433.913 77.6794 433.393 75.7394 433.303 73.7094C433.103 69.3394 434.803 66.4094 438.393 64.9994C442.193 63.5094 446.153 64.3394 448.653 67.7294C453.183 73.8894 458.423 79.4494 463.243 85.3594C475.083 99.8494 487.033 114.249 498.933 128.689C499.603 129.499 500.133 130.479 501.413 130.699C502.593 128.969 502.103 127.109 502.073 125.389C501.803 110.859 501.443 96.3294 501.153 81.7994C501.043 76.5294 500.823 71.2494 501.053 65.9894C501.233 61.6794 499.953 58.4294 496.763 55.4094C489.773 48.7894 483.213 41.7194 477.283 34.1094C477.063 33.8194 476.803 33.5594 476.573 33.2794C472.943 28.7094 472.983 24.1394 476.663 21.2994C480.363 18.4494 484.713 19.4194 488.403 24.0594C491.343 27.7494 494.133 31.5694 497.063 35.2794C497.913 36.3494 498.483 37.8694 500.593 37.9394C501.133 33.0994 501.683 28.7194 497.893 24.3594C492.383 18.0194 493.703 9.26942 500.123 4.01942C505.933 -0.730583 515.353 0.0594192 520.393 5.70942C525.283 11.1994 525.783 18.6494 520.413 23.9394C515.493 28.7894 516.633 33.8794 517.283 39.2894C519.293 39.6994 519.813 38.3094 520.593 37.4094C524.403 33.0194 527.833 28.2994 532.113 24.3294C533.433 23.0994 534.823 21.8894 536.333 20.9194C538.253 19.6794 540.413 19.0894 542.393 20.7994C544.373 22.4994 544.123 24.6394 543.153 26.7794C541.793 29.7794 539.873 32.4294 537.863 35.0194C532.973 41.3394 528.253 47.8094 523.153 53.9594C519.083 58.8694 517.233 63.9594 518.303 70.4894C519.153 75.6394 518.693 80.9994 518.793 86.2694C519.163 105.159 519.523 124.049 519.913 142.939C519.933 143.959 519.563 145.159 520.913 146.079C522.833 145.519 523.903 143.749 525.213 142.349C534.413 132.519 542.663 121.909 550.693 111.119C560.133 98.4294 570.213 86.2594 580.563 74.2994C582.843 71.6694 585.403 69.3594 588.493 67.7294C591.423 66.1894 594.473 65.9494 597.283 67.9194C600.123 69.9094 600.793 72.9294 600.223 76.1694C599.343 81.1994 597.713 86.0194 595.743 90.7294C587.333 110.859 578.233 130.659 568.683 150.269C558.903 170.359 548.993 190.389 539.153 210.459C538.353 212.079 537.613 213.729 536.603 215.889C538.383 215.799 539.063 214.719 539.843 213.939C545.913 207.929 551.973 201.909 558.013 195.869C570.603 183.279 583.383 170.889 596.733 159.089C598.563 157.469 599.703 155.599 600.593 153.319C602.933 147.279 608.693 144.179 614.453 145.509C620.373 146.879 624.063 152.269 623.443 158.609C622.813 164.989 618.563 169.319 611.903 169.399C608.193 169.439 605.833 170.959 603.483 173.439C579.863 198.369 555.933 222.999 531.793 247.429C531.283 247.949 530.763 248.459 530.283 248.999C527.933 251.649 527.903 251.699 530.743 254.039C541.283 262.699 553.003 269.799 563.533 278.429C569.313 283.169 575.793 285.789 582.713 288.109C598.223 293.299 613.793 298.279 629.523 302.749C635.813 304.539 642.053 306.519 648.023 309.249C652.213 311.159 656.823 311.319 661.183 312.569C667.453 314.369 673.913 315.539 680.293 316.949C685.033 317.999 685.383 317.769 685.413 313.049C685.473 303.969 685.773 294.899 686.063 285.819C686.663 267.479 688.243 249.199 689.343 230.899C689.773 223.829 689.483 216.719 690.453 209.679C690.723 207.749 689.913 206.169 688.773 204.669C687.313 202.739 686.633 200.469 686.423 198.079C685.953 192.849 688.293 188.529 692.723 186.409C697.093 184.309 702.723 185.159 705.913 188.379C709.493 192.009 710.663 197.459 707.853 201.909C704.953 206.499 704.543 211.389 704.333 216.469C704.313 217.009 704.313 217.559 704.303 218.109C703.833 242.079 702.243 266.009 701.203 289.959C700.983 295.159 701.173 300.369 701.983 305.839C703.003 303.809 704.033 301.769 705.053 299.739C718.413 273.239 730.073 246.059 737.793 217.319C741.853 202.209 746.813 187.399 752.693 172.909C755.703 165.509 758.723 158.099 762.073 150.849C764.773 145.009 768.583 142.989 773.083 144.249C777.913 145.599 779.883 149.469 779.263 156.009C777.433 175.349 775.673 194.699 773.843 214.039C773.343 219.279 772.693 224.509 772.143 229.739C771.953 231.529 771.503 233.329 772.143 235.129C773.793 235.929 774.453 234.489 775.233 233.689C789.263 219.199 803.213 204.629 817.273 190.179C820.503 186.859 821.843 183.229 821.893 178.509C821.993 168.899 822.263 159.259 823.533 149.699C823.703 148.439 823.793 147.149 824.193 145.959C825.383 142.419 828.723 140.339 832.213 140.799C835.473 141.229 838.123 143.839 838.533 147.369C838.893 150.459 838.233 153.519 837.823 156.579C837.253 160.869 836.713 165.169 836.673 169.719C840.473 166.909 844.343 164.659 844.793 158.929C845.513 149.749 852.503 144.219 861.063 145.209C868.193 146.029 874.003 152.469 874.153 159.729C874.303 166.709 869.233 173.469 862.113 173.449C855.083 173.439 851.623 177.189 848.293 182.219C849.193 183.939 850.803 183.239 852.083 183.199C858.073 183.039 863.983 181.749 870.013 182.119C872.213 182.259 874.403 182.359 876.363 183.409C879.973 185.339 880.073 189.039 876.493 191.059C873.603 192.689 870.283 193.069 867.053 193.519C858.593 194.669 850.143 195.879 841.663 196.809C835.813 197.449 831.363 199.699 827.233 204.259C815.403 217.309 802.923 229.779 790.733 242.509C785.953 247.489 781.253 252.549 776.523 257.569C775.913 258.209 775.193 258.819 775.313 260.289C780.033 261.179 784.843 260.589 789.633 260.289C805.423 259.279 820.953 256.179 836.663 254.579C848.393 253.389 860.103 251.649 871.953 251.859C874.503 251.899 877.043 251.959 879.423 253.089C885.473 255.949 886.363 261.749 881.373 266.209C878.913 268.409 875.993 269.919 873.043 271.339C863.533 275.919 853.613 279.489 843.783 283.269C813.243 295.009 782.163 305.199 751.193 315.689C746.383 317.319 741.633 319.109 736.123 321.079C738.213 322.009 739.773 321.699 741.233 321.699C754.313 321.749 767.403 321.879 780.483 321.749C793.033 321.629 805.533 322.609 818.063 322.889C821.183 322.959 824.113 322.709 827.113 321.569C833.223 319.249 839.083 321.479 842.143 326.829C845.013 331.849 843.613 337.749 838.563 341.839C833.733 345.749 827.873 345.849 823.233 341.429C820.583 338.909 817.833 338.229 814.403 338.269C780.063 338.619 745.743 339.819 711.393 339.689C710.843 339.689 710.303 339.689 709.753 339.719C705.763 339.969 705.303 340.409 705.863 344.299C707.133 353.109 708.563 361.889 709.823 370.699C710.823 377.709 712.333 384.639 712.773 391.729C712.903 393.819 714.013 395.489 714.903 397.269C724.153 415.799 733.453 434.309 743.593 452.379C745.993 456.659 748.163 461.069 749.733 465.739C750.923 469.269 753.633 471.839 755.463 474.959C759.513 481.849 763.803 488.599 768.113 495.329C769.853 498.049 770.293 498.079 772.623 495.809C779.893 488.699 786.983 481.389 794.613 474.639C810.123 460.919 825.543 447.089 840.993 433.299C843.293 431.239 845.553 429.129 847.883 427.109C850.263 425.039 851.873 422.679 852.733 419.489C854.373 413.419 859.093 409.769 864.393 409.729C870.253 409.689 875.033 413.619 875.973 419.249C876.853 424.519 873.423 430.809 867.933 431.909C862.513 432.999 858.973 436.199 855.223 439.659C839.733 453.949 824.003 467.979 808.623 482.389C802.713 487.929 797.503 494.229 791.953 500.209C792.723 500.989 793.873 499.969 794.973 499.619C824.833 490.099 853.743 478.419 880.863 462.529C899.413 451.669 919.193 443.359 939.043 435.239C941.213 434.349 943.513 433.629 945.823 433.229C950.033 432.489 953.543 434.469 955.173 438.149C956.843 441.919 956.033 445.629 952.673 448.409C934.053 463.809 915.403 479.169 896.763 494.549C894.393 496.499 892.063 498.489 889.693 500.469C890.703 502.469 892.323 501.879 893.613 501.859C914.683 501.619 935.763 501.569 956.823 500.769C959.803 500.659 961.943 499.479 963.953 497.439C970.943 490.289 978.263 483.489 986.093 477.259C986.943 476.579 987.733 475.799 988.643 475.219C992.293 472.879 996.313 473.429 998.913 476.559C1001.38 479.539 1001.32 483.379 998.253 486.379C995.663 488.899 992.633 490.959 989.773 493.209C987.223 495.209 984.423 496.909 981.823 499.959C987.003 501.229 991.233 501.589 995.343 498.159C1000.64 493.729 1006.54 493.299 1012.55 496.839C1019.55 500.949 1021.53 511.149 1016.71 517.889C1011.83 524.719 1002.13 526.359 996.233 520.419C992.263 516.419 988.353 515.919 983.513 516.949C982.643 517.139 981.743 517.209 980.363 517.409C981.343 519.959 983.413 521.119 985.103 522.479C989.073 525.679 992.853 529.069 996.403 532.729C997.793 534.169 999.173 535.629 999.933 537.529C1001.43 541.279 999.153 544.179 995.143 543.549C992.543 543.139 990.453 541.599 988.423 540.079C980.733 534.289 972.993 528.549 965.483 522.519C961.583 519.389 957.503 518.069 952.463 518.199C927.223 518.829 901.973 519.199 876.723 519.679C875.693 519.699 874.543 519.339 873.443 520.479C874.353 522.659 876.433 523.859 878.083 525.419C893.443 539.939 911.183 551.489 927.403 564.949C934.253 570.629 941.303 576.089 947.663 582.339C949.743 584.379 951.763 586.489 952.953 589.209C955.463 594.969 952.273 600.029 945.983 600.159C944.383 600.189 942.743 599.819 941.153 599.459C934.743 598.009 928.743 595.399 922.723 592.819C884.283 576.359 847.103 557.239 809.513 538.999C807.723 538.129 805.913 537.289 803.413 536.109C804.033 538.099 805.203 538.889 806.113 539.809C819.393 553.249 832.733 566.649 845.973 580.129C850.173 584.399 854.183 588.859 858.243 593.279C861.293 596.599 864.103 599.869 868.733 601.539C873.693 603.329 876.083 609.859 874.703 614.829C873.123 620.509 868.483 623.749 862.383 623.439C856.353 623.129 851.103 619.239 851.153 613.669C851.203 608.219 848.543 605.209 845.003 601.829C827.013 584.619 809.263 567.169 791.403 549.829C785.273 543.879 779.083 537.999 772.933 532.079C768.453 527.769 768.383 527.709 764.783 532.559C757.083 542.909 749.743 553.539 741.723 563.629C737.193 569.329 734.563 575.619 732.303 582.379C727.123 597.889 722.133 613.459 717.663 629.189C715.873 635.479 713.323 641.539 711.323 647.739C708.833 655.479 707.303 663.539 705.403 671.469C704.513 675.179 703.743 678.919 702.863 682.629C702.363 684.719 703.073 685.779 705.253 685.789C706.163 685.789 707.073 685.819 707.983 685.809C724.703 685.749 741.413 685.929 758.093 687.119C772.583 688.159 787.073 689.129 801.573 690.039C807.323 690.399 813.033 690.999 818.383 687.439C821.303 685.499 825.043 685.879 828.373 687.419C833.833 689.929 836.513 696.569 834.343 702.129C832.243 707.509 824.903 711.439 819.963 708.329C812.733 703.769 804.963 704.639 797.363 704.119C784.143 703.219 770.843 703.359 757.623 702.479C745.463 701.669 733.303 701.499 721.133 701.389C719.383 701.369 717.553 700.919 715.793 701.909C716.333 703.599 717.963 703.739 719.153 704.359C749.933 720.279 782.053 732.659 815.573 741.539C833.523 746.289 850.473 753.949 867.603 761.019C869.593 761.839 871.473 763.069 873.163 764.409C876.343 766.939 877.203 770.13 875.863 773.609C874.493 777.169 871.933 779.24 868.053 779.359C866.613 779.409 865.153 779.199 863.713 779.059C838.043 776.599 812.383 774.129 786.713 771.669C785.853 771.589 784.923 771.349 784.113 772.129C784.163 773.789 785.623 774.479 786.613 775.429C801.413 789.659 816.323 803.769 831.013 818.109C833.973 821 836.973 822.299 841.123 822.209C850.563 822.009 860.023 822.029 869.413 823.319C870.843 823.519 872.333 823.549 873.703 823.969C877.693 825.18 880.033 828.519 879.553 832.069C879.053 835.769 875.553 838.779 871.393 838.659C868.503 838.579 865.623 837.989 862.743 837.639C858.793 837.149 854.843 836.669 850.753 836.169C853.173 841.689 856.523 844.259 861.773 844.829C870.073 845.719 875.953 852.589 875.153 860.439C874.303 868.759 867.193 874.669 858.913 873.919C851.693 873.269 846.553 868.139 846.623 860.429C846.683 853.959 842.463 851.479 837.783 848.129C836.653 852.139 837.233 855.519 837.693 858.859C838.293 863.209 838.433 867.559 838.063 871.909C837.693 876.239 835.823 878.769 833.253 878.949C830.653 879.129 828.723 877.109 827.713 872.549C825.753 863.669 824.993 854.599 823.843 845.599C822.303 833.529 822.473 833.519 813.653 825.079C797.103 809.259 780.583 793.419 764.033 777.599C763.003 776.62 762.193 775.329 760.543 774.949C759.043 776.189 759.663 777.929 759.673 779.439C759.773 793.099 761.733 806.579 763.573 820.079C765.803 836.449 767.893 852.849 768.493 869.389C768.583 871.929 768.663 874.479 768.043 876.989C767.103 880.789 765.093 883.829 761.053 884.499C757.423 885.109 754.813 882.849 752.913 880.029C750.063 875.799 747.793 871.259 745.863 866.519C732.303 833.169 720.583 799.159 709.203 765.029C706.383 756.589 703.383 748.199 700.453 739.799C700.173 738.989 699.793 738.219 698.633 737.529C698.633 739.259 698.633 740.979 698.633 742.709C698.613 752.519 698.493 762.339 698.603 772.149C698.783 788.329 697.813 804.469 697.213 820.629C697.123 823.159 698.023 825.189 698.843 827.389C700.753 832.549 699.173 838.119 695.093 841.079C690.783 844.209 684.923 844.219 680.833 841.119C676.233 837.629 674.423 831.569 676.563 826.549C677.053 825.399 677.653 824.079 678.603 823.389C681.823 821.029 682.163 817.859 682.063 814.219C681.123 780.979 680.753 747.739 680.693 714.489C680.673 705.209 680.363 704.979 671.033 706.369C659.183 708.149 647.383 710.409 635.493 711.769C628.623 712.549 622.673 715.049 616.603 717.999C599.923 726.109 583.683 735.019 567.343 743.769C563.173 745.999 558.963 748.159 554.503 749.739C551.003 750.979 548.323 753.529 545.213 755.379C538.343 759.469 531.633 763.809 524.903 768.129C522.143 769.899 522.163 770.249 524.253 772.649C524.373 772.789 524.503 772.909 524.633 773.039C540.833 788.729 555.803 805.559 570.593 822.569C578.103 831.209 585.853 839.63 593.403 848.229C595.393 850.5 597.563 852.01 600.593 852.729C606.523 854.149 610.103 858.379 610.453 863.629C610.823 869.279 607.943 873.619 602.683 875.369C597.703 877.019 592.313 875.039 589.403 870.479C589.113 870.019 588.693 869.549 588.643 869.049C587.833 861.069 581.623 856.599 576.863 851.319C560.783 833.529 544.503 815.919 528.253 798.279C525.603 795.399 522.753 792.709 519.873 789.809C519.093 791.309 519.703 792.119 519.953 792.939C530.053 825.119 543.163 855.979 560.093 885.209C570.313 902.849 578.103 921.689 585.573 940.629C586.173 942.139 586.643 943.729 586.963 945.329C587.803 949.559 586.083 953.179 582.553 954.929C578.773 956.799 574.673 955.949 571.783 952.509C565.593 945.139 559.443 937.729 553.313 930.309C542.683 917.409 532.093 904.479 521.443 891.599C520.693 890.69 520.123 889.349 518.573 889.509C517.733 890.229 517.893 891.189 517.973 892.049C519.203 906.009 518.533 920.019 518.863 933.999C519.043 941.439 519.463 948.879 519.603 956.329C519.663 959.249 520.713 961.459 522.683 963.599C529.443 970.949 536.663 977.889 542.843 985.769C543.843 987.049 544.933 988.319 545.663 989.749C547.283 992.949 546.553 996.479 544.043 998.679C541.723 1000.72 538.343 1001 535.383 999.419C533.733 998.539 532.563 997.169 531.473 995.699C529.193 992.639 526.943 989.549 524.593 986.549C523.513 985.169 522.673 983.43 520.303 982.969C518.613 987.409 518.173 991.279 521.893 995.299C527.403 1001.25 527.053 1009.46 521.653 1015C516.423 1020.35 507.103 1020.74 501.213 1015.84C495.823 1011.35 494.903 1003.28 498.943 997.039C500.303 994.929 503.093 993.739 503.243 990.919C503.423 987.489 503.283 984.049 503.283 980.189C500.873 980.679 500.083 982.429 498.993 983.659C495.983 987.059 493.083 990.559 490.153 994.029C488.373 996.129 486.273 997.869 483.963 999.329C481.983 1000.59 479.863 1000.99 477.903 999.329C475.883 997.619 476.093 995.419 477.213 993.379C478.523 990.999 479.983 988.679 481.613 986.509C487.173 979.099 492.753 971.699 498.513 964.439C501.143 961.129 502.343 957.659 502.153 953.409C501.113 930.169 501.063 906.909 500.733 883.659C500.693 880.599 500.253 877.549 500.003 874.639C498.003 873.819 497.443 875.279 496.673 876.119C487.313 886.289 478.623 896.999 470.413 908.119C461.883 919.669 452.823 930.809 443.453 941.689C440.853 944.709 437.983 947.509 435.123 950.309C433.273 952.119 431.053 953.359 428.393 953.599C423.713 954.019 420.703 951.569 420.223 946.889C419.903 943.739 420.743 940.759 421.693 937.809C425.263 926.709 430.273 916.199 435.023 905.589C449.633 872.899 466.023 841.07 481.623 808.849C482.463 807.12 483.213 805.339 484.003 803.579C483.603 803.249 483.203 802.919 482.793 802.589C481.723 804.039 480.823 805.659 479.563 806.919C465.513 820.889 451.453 834.829 437.303 848.699C433.023 852.899 428.543 856.889 424.063 860.869C422.123 862.589 420.663 864.459 419.683 866.939C417.153 873.309 411.353 876.259 405.283 874.599C399.923 873.139 396.183 867.729 396.703 862.189C397.353 855.329 401.893 850.859 408.893 850.749C411.863 850.699 414.023 849.879 416.063 847.709C434.003 828.669 452.083 809.749 470.573 791.239C476.993 784.809 483.493 778.459 489.453 771.589C492.183 768.449 492.273 768.109 488.963 765.639C478.333 757.709 467.373 750.199 457.013 741.929C451.333 737.399 445.163 734.619 438.383 732.379C422.163 727.029 405.913 721.789 389.483 717.119C383.723 715.479 377.993 713.679 372.563 711.069C368.243 708.989 363.403 708.929 358.873 707.629C352.423 705.779 345.793 704.559 339.233 703.119C334.893 702.169 334.663 702.349 334.613 706.969C334.563 712.059 334.603 717.149 334.573 722.229C334.473 741.13 332.953 759.959 331.623 778.799C330.903 788.939 330.623 799.119 330.103 809.269C329.963 811.899 330.483 814.209 332.033 816.439C333.853 819.059 334.423 822.139 333.853 825.299C332.993 829.999 330.263 833.249 325.653 834.569C321.073 835.879 316.963 834.839 313.883 831.019C310.723 827.109 309.803 822.389 312.573 818.339C315.503 814.049 315.523 809.619 315.733 804.919C316.653 784.779 317.353 764.639 318.533 744.509C319.093 734.929 318.633 725.289 318.633 715.299C316.913 716.129 316.643 717.839 315.973 719.139C300.113 749.749 287.883 781.729 278.973 815.059C274.083 833.339 266.463 850.699 259.033 868.079C258.263 869.889 257.143 871.629 255.883 873.149C253.273 876.309 249.733 877.059 246.073 875.489C242.453 873.939 240.403 870.789 240.763 866.839C242.273 850.569 243.873 834.309 245.433 818.039C246.523 806.679 247.613 795.32 248.703 783.979C247.093 783.519 246.603 784.739 245.923 785.449C231.323 800.649 216.813 815.929 202.113 831.029C199.353 833.859 198.113 836.729 198.213 840.669C198.463 850.299 198.153 859.929 197.063 869.509C196.923 870.769 196.853 872.059 196.503 873.269C195.303 877.499 191.943 879.879 188.043 879.389C184.203 878.909 181.433 875.68 181.653 871.219C181.843 867.43 182.613 863.659 183.143 859.889C183.543 857.049 184.023 854.219 183.273 850.769C178.833 853.849 175.393 856.609 175.253 862.389C175.103 868.319 170.163 873.459 164.593 874.729C158.413 876.139 152.043 873.51 148.493 868.109C145.183 863.07 145.413 856.579 149.003 851.749C151.593 848.279 155.283 846.349 159.333 846.519C165.973 846.809 168.863 842.529 172.313 837.679C169.293 836.389 166.613 836.969 164.033 837.359C158.973 838.13 153.883 838.159 148.803 837.949C144.053 837.749 141.363 835.889 141.333 833.129C141.303 830.589 143.413 828.499 147.953 827.759C158.163 826.099 168.413 824.629 178.683 823.389C184.133 822.729 188.493 820.869 192.393 816.709C209.293 798.679 226.493 780.939 243.573 763.089C244.313 762.319 245.263 761.669 245.573 760.259C244.393 758.829 242.663 759.43 241.193 759.479C227.933 759.94 214.763 761.379 201.633 763.259C184.553 765.699 167.443 767.909 150.153 768.289C147.613 768.349 145.043 768.469 142.563 767.769C139.423 766.879 136.893 765.139 135.953 761.869C134.963 758.409 136.873 755.959 139.263 753.789C141.313 751.939 143.743 750.699 146.183 749.479C158.413 743.389 171.313 738.969 184.043 734.109C215.973 721.93 248.633 711.869 280.793 700.379C281.813 700.019 282.833 699.659 283.903 698.639C282.653 698.569 281.403 698.439 280.153 698.429C260.343 698.329 240.533 698.299 220.733 698.109C214.743 698.049 208.753 697.629 202.773 697.279C199.463 697.089 196.343 697.429 193.193 698.669C188.863 700.369 184.583 699.859 180.893 696.769C175.843 692.529 175.313 685.289 179.603 680.189C184.063 674.889 191.853 673.639 196.513 678.429C199.933 681.939 203.293 682.659 207.643 681.869C209.053 681.609 210.543 681.769 211.993 681.749C243.783 681.319 275.583 680.899 307.373 680.469C314.763 680.369 315.123 679.959 313.993 672.619C312.053 660.059 309.653 647.539 308.353 634.909C307.713 628.699 305.553 623.449 302.933 618.039C294.673 601.029 285.763 584.379 276.713 567.789C274.273 563.319 272.013 558.769 270.323 553.949C268.923 549.949 265.813 546.979 263.763 543.329C260.313 537.149 256.303 531.289 252.453 525.339C250.143 521.779 249.993 521.769 246.913 524.899C237.363 534.629 227.583 544.099 217.383 553.149C202.293 566.529 187.273 579.979 172.153 593.319C169.763 595.429 168.123 597.519 167.463 600.879C166.103 607.749 159.423 611.739 153.123 610.109C147.753 608.719 144.343 604.399 144.383 599.039C144.423 593.649 147.783 588.819 153.143 588.079C157.163 587.529 159.653 585.359 162.343 582.889C181.083 565.689 199.913 548.599 218.613 531.349C222.703 527.579 226.373 523.349 230.253 519.319C229.063 518.769 228.093 519.519 227.123 519.839C195.423 530.159 164.733 542.709 135.863 559.599C117.953 570.079 98.7428 577.929 79.4928 585.619C77.9828 586.219 76.3828 586.679 74.7828 586.929C70.1328 587.679 66.7328 585.849 65.0128 581.849C63.3428 577.969 64.1528 574.709 67.7728 571.689C76.5628 564.369 85.4228 557.109 94.2528 549.829C105.613 540.469 116.983 531.129 128.313 521.739C129.233 520.969 130.513 520.419 130.723 518.819C129.093 517.729 127.253 518.279 125.533 518.289C112.813 518.349 100.093 518.339 87.3728 518.659C79.5728 518.849 71.7728 519.589 63.9628 519.399C61.0028 519.329 58.8428 520.559 56.7528 522.559C49.4228 529.609 42.0728 536.649 34.2128 543.119C29.1128 547.319 24.4728 547.589 21.3428 543.649C18.3828 539.939 19.5728 535.489 24.5228 531.559C29.1628 527.879 34.2328 524.719 39.0228 519.889C33.2128 519.179 28.5828 518.469 24.1428 522.469C19.7228 526.449 14.2328 526.829 8.87276 523.979C3.38276 521.069 0.602775 516.219 0.882775 510.129C1.15277 504.289 4.06276 499.719 9.65276 497.379C15.2828 495.019 20.6828 496.069 24.7228 500.369C29.4228 505.369 34.3228 503.629 39.8828 501.679C37.1528 499.379 34.4728 497.029 31.6928 494.799C28.7128 492.399 25.9528 489.769 23.3328 486.989C22.0828 485.659 20.9028 484.249 20.2928 482.509C18.9728 478.739 21.4828 475.839 25.4028 476.709C28.1128 477.309 30.3528 478.949 32.5228 480.599C39.9028 486.209 47.3628 491.719 54.5728 497.529C58.6128 500.779 62.8628 502.129 68.0928 501.989C92.9728 501.329 117.863 500.979 142.743 500.489C143.933 500.469 145.303 500.949 146.333 499.729C146.073 497.709 144.333 496.799 143.053 495.639C135.513 488.809 127.933 482.029 119.713 475.999C104.323 464.699 89.4428 452.769 75.0228 440.259C72.5428 438.109 70.1828 435.849 68.4228 433.049C66.4628 429.939 65.5228 426.659 67.7228 423.349C69.9228 420.039 73.2828 419.509 76.9128 420.249C81.7328 421.239 86.3928 422.769 90.9328 424.649C108.223 431.819 125.253 439.579 142.113 447.699C164.543 458.489 186.823 469.579 209.183 480.519C210.953 481.389 212.633 482.549 214.963 482.849C215.433 481.259 214.133 480.579 213.363 479.789C206.853 473.189 200.313 466.629 193.763 460.069C181.823 448.119 170.043 435.999 158.913 423.279C157.283 421.409 155.303 420.339 153.063 419.509C148.793 417.919 146.183 414.839 145.503 410.319C144.443 403.299 148.923 397.569 155.833 396.949C163.503 396.259 169.753 401.029 169.533 408.229C169.413 412.039 170.863 414.259 173.323 416.629C197.503 439.979 221.613 463.399 245.753 486.799C246.403 487.429 247.053 488.069 247.713 488.689C251.663 492.399 252.013 492.459 255.223 488.149C262.813 477.949 270.043 467.459 277.923 457.489C282.523 451.669 285.383 445.359 287.803 438.409C294.023 420.549 298.663 402.199 304.893 384.379C310.003 369.739 313.493 354.769 316.903 339.729C318.023 334.819 317.723 334.459 312.573 334.409C304.943 334.329 297.313 334.359 289.673 334.279C271.863 334.079 254.133 332.369 236.373 331.249C228.213 330.739 220.053 330.389 211.893 329.919C208.913 329.749 206.343 330.319 203.673 331.959C197.413 335.789 190.463 334.129 186.953 328.459C184.193 324.009 184.483 319.139 187.723 315.299C191.013 311.409 196.743 309.429 200.973 312.109C207.623 316.329 214.873 315.789 222.003 316.139C246.853 317.339 271.713 318.289 296.583 319.309C299.443 319.429 302.303 319.329 305.843 319.329C304.423 317.119 302.593 316.719 301.113 315.939C270.223 299.809 237.843 287.609 204.173 278.589C186.423 273.829 169.563 266.439 152.703 259.179C150.723 258.329 148.763 257.239 147.073 255.909C144.073 253.539 143.193 249.979 144.393 246.619C145.663 243.099 148.323 240.929 152.253 241.049C157.693 241.209 163.123 241.739 168.543 242.249C185.533 243.849 202.513 245.529 219.503 247.159C224.863 247.679 230.233 248.159 235.743 248.669C235.723 246.219 234.123 245.399 233.023 244.349C217.953 229.879 202.803 215.479 187.783 200.959C185.473 198.729 182.993 198.029 179.933 198.049C169.943 198.099 159.943 198.149 150.003 196.889C148.003 196.639 146.013 196.469 144.283 195.349C141.823 193.759 140.333 191.559 140.673 188.519C141.033 185.349 142.713 183.149 145.813 182.119C147.583 181.529 149.353 181.569 151.193 181.829C157.253 182.659 163.333 183.379 170.383 184.259C167.103 179.189 164.163 175.949 158.563 175.469C147.383 174.509 143.073 164.219 145.873 156.269C148.063 150.059 154.663 145.739 161.203 146.309C167.763 146.879 172.903 151.829 173.923 158.559C174.776 164.173 177.789 168.813 182.963 172.479L183.023 172.389ZM703.263 557.869C700.153 553.989 696.963 551.849 694.173 549.309C685.583 541.499 676.903 533.789 668.323 525.969C665.253 523.179 662.003 521.599 657.623 521.689C646.013 521.909 634.393 521.849 622.793 521.509C617.783 521.359 614.513 523.209 612.213 527.489C605.673 539.649 600.223 552.309 595.093 565.119C593.873 568.159 594.343 568.769 597.453 568.439C610.253 567.109 623.063 565.799 635.843 564.289C653.303 562.229 670.673 559.309 688.333 559.239C692.983 559.219 697.623 558.409 703.263 557.869ZM407.493 348.859C408.803 361.649 409.113 374.539 409.703 387.409C409.893 391.529 411.213 394.609 414.123 397.479C422.153 405.379 430.253 413.239 437.773 421.599C442.133 426.449 446.583 426.999 452.343 425.129C463.753 421.409 474.913 417.059 485.983 412.459C492.963 409.559 492.943 409.639 487.333 404.979C463.183 384.889 437.243 366.989 414.333 345.389C412.693 343.849 410.813 340.859 408.713 341.819C406.093 343.019 408.133 346.429 407.493 348.869V348.859ZM318.263 462.789C318.413 464.489 319.733 465.019 320.643 465.839C331.453 475.549 342.343 485.169 353.073 494.969C355.673 497.349 358.373 498.359 361.873 498.339C373.683 498.249 385.503 498.129 397.293 498.589C403.123 498.819 406.293 496.369 408.803 491.499C414.893 479.699 420.233 467.569 425.213 455.279C425.643 454.219 426.723 453.099 425.453 451.589C389.903 455.309 354.233 459.039 318.263 462.799V462.789ZM610.593 491.689C612.373 491.479 612.823 490.109 613.583 489.169C620.323 480.849 627.013 472.489 633.723 464.139C644.753 450.429 654.883 435.999 666.923 423.099C670.393 419.389 673.693 415.519 676.983 411.649C677.853 410.619 679.583 409.609 678.673 408.029C677.843 406.579 676.023 407.209 674.643 407.279C660.333 408.009 646.023 408.809 631.713 409.569C628.653 409.729 626.283 411.119 624.033 413.169C615.163 421.239 607.033 430.059 598.183 438.119C594.063 441.869 593.343 445.809 594.833 450.789C597.793 460.719 601.323 470.429 605.453 479.929C607.163 483.869 608.303 488.089 610.603 491.699L610.593 491.689ZM462.953 701.929C463.763 702.079 464.303 701.549 464.763 701.029C475.063 689.549 485.353 678.059 495.653 666.579C497.463 664.559 497.863 662.159 498.013 659.539C498.723 647.209 498.433 634.859 498.833 622.529C499.003 617.469 497.053 614.439 492.773 612.079C480.653 605.409 467.863 600.259 455.133 594.949C454.173 594.549 453.173 593.889 451.743 594.859C455.463 630.429 459.203 666.179 462.943 701.939L462.953 701.929ZM341.453 612.709C342.693 612.759 343.593 612.879 344.483 612.829C359.513 612.059 374.543 611.239 389.573 610.509C392.553 610.369 394.613 608.809 396.613 606.859C405.303 598.369 413.913 589.769 422.813 581.509C426.363 578.219 427.423 574.809 425.823 570.369C425.273 568.839 424.883 567.249 424.403 565.679C421.023 554.549 416.493 543.859 412.043 533.129C409.753 527.619 409.553 527.639 405.663 532.309C384.793 557.409 366.033 584.239 343.583 608.049C342.533 609.159 341.133 610.279 341.453 612.699V612.709ZM613.043 679.059C613.043 677.389 613.143 675.939 613.023 674.519C612.053 662.939 611.233 651.349 611.033 639.729C610.983 637.009 610.463 634.309 610.413 631.589C610.353 628.079 608.923 625.449 606.443 622.999C598.043 614.699 589.603 606.429 581.593 597.759C577.953 593.819 574.323 593.129 569.493 594.589C556.253 598.599 543.523 603.919 530.763 609.189C529.953 609.519 529.033 609.799 528.643 611.319C554.913 633.809 583.763 653.529 609.133 677.449C610.013 678.279 610.943 679.269 613.043 679.059ZM557.293 318.129C555.463 318.729 554.523 320.369 553.353 321.669C544.103 331.919 534.993 342.289 525.673 352.459C523.173 355.189 522.003 357.999 522.033 361.719C522.133 373.349 522.293 384.989 521.773 396.589C521.493 402.869 524.133 406.329 529.343 409.019C540.493 414.789 551.963 419.799 563.573 424.539C564.243 424.809 564.923 425.079 565.603 425.339C567.873 426.189 568.603 425.079 568.553 422.999C568.543 422.459 568.523 421.909 568.463 421.369C566.883 407.299 565.363 393.219 563.703 379.159C562.153 365.999 559.883 352.929 559.673 339.629C559.583 334.009 559.053 328.389 558.663 322.769C558.553 321.189 558.713 319.469 557.283 318.129H557.293ZM601.143 690.229C570.183 671.289 544.133 648.009 517.363 625.209C517.023 626.139 516.683 626.609 516.683 627.079C516.713 639.589 516.793 652.109 516.833 664.619C516.833 666.929 517.713 668.809 519.193 670.529C530.283 683.479 540.913 696.799 551.053 710.509C552.773 712.839 554.463 713.259 557.053 711.999C571.383 705.029 585.093 696.819 601.133 690.229H601.143ZM319.503 446.749C353.713 438.429 388.613 436.659 423.613 433.559C423.173 432.629 423.063 432.059 422.723 431.719C413.823 422.889 404.903 414.089 395.993 405.289C394.513 403.829 392.763 403.099 390.653 402.939C373.993 401.739 357.423 399.779 340.883 397.479C335.593 396.739 335.563 396.829 333.863 401.749C328.943 415.989 325.163 430.619 319.543 444.629C319.363 445.079 319.523 445.649 319.523 446.749H319.503ZM689.763 419.979C671.533 450.149 647.983 475.959 625.773 502.549C626.463 503.789 627.243 503.719 627.933 503.719C639.173 503.579 650.413 503.819 661.653 503.259C666.493 503.019 670.233 501.489 673.863 498.409C685.333 488.659 697.103 479.279 709.153 470.249C713.693 466.849 713.703 466.819 711.303 461.899C704.723 448.369 697.283 435.249 691.263 421.439C691.073 421.009 690.543 420.729 689.763 419.989V419.979ZM330.823 599.699C349.103 569.949 372.433 543.789 395.463 516.699C393.973 516.509 393.283 516.359 392.583 516.339C380.063 515.939 367.573 517.119 355.063 517.089C352.513 517.089 350.623 518.259 348.763 519.839C336.873 529.939 324.753 539.759 312.273 549.109C308.446 551.976 307.553 555.499 309.593 559.679C309.913 560.329 310.243 560.979 310.583 561.619C316.823 573.499 323.213 585.309 328.583 597.619C328.933 598.409 329.173 599.379 330.833 599.699H330.823ZM596.773 586.449C596.503 587.809 597.323 588.349 597.943 588.949C606.783 597.559 615.663 606.119 624.473 614.759C626.313 616.559 628.423 616.989 630.863 617.209C640.433 618.079 649.993 619.059 659.543 620.119C666.753 620.919 673.953 621.809 681.133 622.859C683.783 623.249 685.313 622.459 686.053 619.919C686.353 618.879 686.773 617.869 687.103 616.829C691.433 603.169 695.543 589.429 700.683 576.039C700.943 575.369 701.173 574.669 700.143 573.619C666.353 581.569 631.493 583.709 596.773 586.449ZM433.483 596.909C432.563 596.709 431.983 597.129 431.473 597.649C422.743 606.609 414.033 615.589 405.293 624.549C403.953 625.919 403.403 627.529 403.243 629.429C401.823 646.229 399.893 662.969 397.693 679.679C397.023 684.799 397.083 684.829 402.093 686.549C415.463 691.139 429.183 694.699 442.353 699.909C443.023 700.169 443.733 700.369 444.443 700.489C445.563 700.669 446.243 700.009 446.223 698.989C446.193 697.739 445.903 696.479 445.633 695.249C443.783 687.119 441.893 678.979 440.943 670.689C438.293 647.469 435.143 624.289 434.343 600.899C434.293 599.529 434.753 597.959 433.483 596.919V596.909ZM573.493 319.079C581.863 353.809 583.573 388.519 586.713 423.229C589.283 422.419 590.313 420.829 591.573 419.569C598.363 412.739 604.943 405.689 611.933 399.079C615.653 395.569 617.263 391.619 617.593 386.649C618.583 371.609 620.573 356.659 622.523 341.719C623.333 335.529 623.363 335.369 617.683 333.429C604.103 328.789 590.223 325.069 576.833 319.859C576.183 319.609 575.463 319.539 573.493 319.089V319.079ZM420.153 330.209C424.773 334.069 429.733 336.389 434.153 339.509C455.713 354.699 475.973 371.519 495.813 388.859C498.213 390.959 500.453 393.249 503.333 394.879C503.683 394.039 503.953 393.709 503.933 393.399C503.063 380.879 503.453 368.339 503.283 355.809C503.243 353.079 502.243 351.009 500.533 348.949C490.303 336.659 480.203 324.269 470.593 311.489C468.073 308.129 464.849 307.423 460.923 309.369C447.893 315.809 435.183 322.879 421.893 328.799C421.433 329.009 421.073 329.449 420.153 330.209ZM329.613 518.009C326.093 517.179 322.723 516.459 319.723 518.929C309.063 527.719 297.383 535.099 286.273 543.279C282.023 546.409 282.063 546.429 284.423 551.229C289.943 562.469 295.533 573.669 300.943 584.969C307.993 599.719 315.953 613.979 323.613 628.409C324.873 630.769 326.403 632.649 329.153 633.189C340.383 635.409 351.663 637.149 363.173 636.779C364.623 636.729 366.143 636.729 367.293 635.669C370.573 632.649 373.913 629.679 376.723 626.129C375.003 624.789 373.533 625.329 372.183 625.549C360.853 627.429 349.433 627.449 337.993 627.599C329.363 627.719 323.913 623.889 320.623 616.279C320.193 615.279 319.683 614.309 319.303 613.289C315.823 604.109 311.453 595.329 306.953 586.619C302.043 577.109 296.903 567.709 292.053 558.159C288.553 551.279 289.643 548.229 296.073 544.209C308.093 536.689 318.533 527.109 329.623 517.999L329.613 518.009ZM502.413 330.909C503.823 323.049 503.613 322.449 499.683 317.639C497.503 314.969 495.463 312.179 493.453 309.379C487.953 301.699 482.533 293.969 477.013 286.299C473.773 281.789 473.733 281.869 468.683 284.359C452.393 292.399 436.033 300.289 419.823 308.469C410.263 313.299 400.923 318.569 391.493 323.659C389.353 324.809 387.603 326.299 387.103 328.889C384.943 339.959 383.273 351.079 383.563 362.399C383.603 364.019 383.563 365.749 384.723 367.059C387.683 370.379 390.683 373.679 394.213 376.439C395.243 375.159 395.003 374.249 394.863 373.369C392.833 360.779 392.333 348.129 392.833 335.389C393.073 329.249 395.663 324.999 400.913 322.249C404.123 320.569 407.433 319.029 410.783 317.639C421.193 313.319 431.303 308.379 441.193 302.959C448.043 299.209 454.913 295.489 461.883 291.959C468.733 288.489 471.923 289.499 475.983 295.839C483.733 307.939 493.343 318.629 502.433 330.899L502.413 330.909ZM626.023 642.919C625.433 646.299 625.683 648.269 625.973 650.229C627.383 659.579 627.973 668.969 627.853 678.429C627.663 692.989 625.913 695.809 612.483 701.269C599.513 706.539 587.063 712.839 574.793 719.549C568.903 722.769 562.963 725.909 556.893 728.769C551.283 731.409 547.773 730.049 544.623 724.719C543.333 722.539 541.993 720.37 540.453 718.359C533.843 709.709 527.163 701.109 520.483 692.519C519.883 691.739 519.413 690.489 517.713 691.309C517.453 694.589 516.733 697.999 519.283 700.989C528.133 711.369 535.273 723.009 543.393 733.919C546.563 738.169 546.733 738.249 551.293 735.989C566.733 728.329 582.243 720.809 597.613 713.009C607.963 707.759 618.103 702.079 628.383 696.689C631.153 695.239 632.973 693.279 633.563 690.169C635.423 680.349 636.563 670.449 637.133 660.479C637.293 657.589 637.133 654.519 635.093 652.209C632.483 649.259 629.603 646.559 626.033 642.929L626.023 642.919ZM690.343 501.729L690.833 502.839C694.153 502.729 697.603 503.729 700.633 501.209C711.113 492.489 722.663 485.239 733.623 477.169C738.163 473.829 738.233 473.519 735.643 468.259C728.913 454.589 722.133 440.939 715.523 427.209C709.683 415.099 702.843 403.539 696.703 391.599C695.473 389.209 693.783 387.469 691.063 386.929C680.193 384.769 669.273 383.039 658.143 383.239C656.703 383.269 655.093 383.089 653.923 384.029C650.293 386.919 646.873 390.039 644.183 393.939C645.993 395.269 647.663 394.739 649.183 394.479C659.963 392.629 670.843 392.719 681.733 392.429C691.093 392.179 696.853 396.289 700.143 404.659C700.543 405.669 700.963 406.679 701.393 407.679C705.623 417.519 709.873 427.329 715.043 436.729C719.763 445.319 724.333 453.989 728.733 462.739C731.553 468.329 730.713 471.989 725.843 474.919C716.923 480.269 709.113 487.059 700.933 493.379C697.383 496.129 693.883 498.949 690.353 501.729H690.343ZM686.703 522.999C687.923 525.319 689.783 526.189 691.293 527.349C700.533 534.429 709.123 542.199 716.923 550.879C720.803 555.189 722.133 559.819 720.473 565.409C719.223 569.599 717.493 573.589 715.853 577.619C709.393 593.449 704.923 609.929 699.843 626.219C699.033 628.809 698.193 631.439 696.963 633.839C695.143 637.399 692.273 638.639 688.343 637.909C685.673 637.419 683.053 636.569 680.363 636.199C669.403 634.709 658.423 633.309 647.443 631.959C646.123 631.799 644.593 631.129 643.223 632.689C645.683 636.509 648.623 639.249 653.663 638.929C655.803 638.799 657.993 639.249 660.143 639.599C670.883 641.339 681.623 643.149 692.353 644.919C696.773 645.649 697.193 645.419 698.703 641.169C700.043 637.409 701.273 633.609 702.593 629.839C710.803 606.369 718.613 582.759 725.633 558.899C726.713 555.229 726.213 552.259 724.123 549.179C719.423 542.249 713.753 536.079 708.893 529.309C703.093 521.219 695.323 521.949 686.693 522.999H686.703ZM388.243 642.439C384.143 645.319 381.133 648.059 381.473 653.159C381.613 655.299 381.143 657.489 380.803 659.639C379.093 670.209 377.333 680.759 375.593 691.319C374.683 696.799 374.873 697.159 379.873 698.859C396.703 704.599 413.493 710.449 430.383 716.019C440.713 719.429 451.193 722.409 461.613 725.589C464.313 726.409 466.903 726.629 469.443 724.969C478.443 719.109 486.883 712.559 494.593 705.079C495.883 703.829 497.363 702.509 497.543 700.619C497.983 695.999 498.153 691.359 497.403 686.289C495.153 687.529 494.283 689.379 493.113 690.879C485.603 700.459 477.813 709.759 468.413 717.619C464.583 720.829 460.463 721.789 455.753 720.499C453.653 719.929 451.523 719.379 449.543 718.499C432.243 710.809 414.023 705.799 395.993 700.259C393.043 699.359 390.053 698.519 387.253 697.259C383.113 695.389 381.313 692.259 382.383 688.029C385.033 677.599 385.773 666.899 387.113 656.299C387.663 651.929 388.973 647.539 388.253 642.439H388.243ZM377.013 387.819C374.713 383.599 371.673 381.739 367.593 381.369C365.063 381.139 362.533 380.909 360.033 380.509C349.473 378.809 338.923 377.039 328.363 375.309C323.373 374.489 323.023 374.749 321.433 379.619C320.303 383.069 319.133 386.499 317.943 389.929C309.653 413.749 301.713 437.679 294.563 461.879C293.603 465.139 294.143 467.759 296.043 470.539C300.763 477.439 306.343 483.689 311.213 490.429C317.253 498.789 325.393 498.139 334.053 498.029C333.533 495.519 331.863 494.919 330.613 493.969C321.933 487.369 314.073 479.859 306.143 472.389C298.983 465.639 297.663 458.469 301.553 449.849C301.773 449.349 301.953 448.839 302.163 448.339C308.593 433.489 313.343 418.049 317.893 402.549C319.323 397.679 320.793 392.799 322.583 388.049C324.473 383.029 327.973 381.099 332.813 382.359C343.403 385.119 354.273 385.839 365.073 387.079C368.793 387.509 372.503 388.829 377.013 387.819ZM631.423 377.999C636.273 374.619 638.793 371.449 638.773 366.499C638.763 363.449 639.533 360.389 640.033 357.349C641.623 347.679 643.313 338.029 644.833 328.359C645.673 322.989 645.423 322.759 640.143 321.099C638.243 320.499 636.323 319.939 634.443 319.269C609.633 310.489 584.683 302.159 559.443 294.709C555.633 293.579 552.483 293.879 549.203 296.149C542.033 301.119 535.483 306.879 528.573 312.159C520.803 318.089 521.943 325.629 522.653 333.899C524.783 332.889 525.553 331.399 526.533 330.139C532.663 322.249 539.533 315.019 546.193 307.589C554.083 298.789 562.343 297.359 572.863 302.329C585.013 308.079 597.923 311.919 610.813 315.739C617.943 317.859 625.083 319.969 632.083 322.479C637.813 324.529 639.223 327.759 637.783 333.549C634.213 347.849 633.873 362.569 631.413 377.999H631.423ZM304.553 287.799C294.373 261.659 284.393 236.059 274.423 210.449C275.293 221.769 274.113 233.029 275.413 244.209C275.893 248.339 276.263 252.569 275.903 256.689C275.593 260.219 276.723 262.579 279.263 264.719C286.623 270.939 293.173 278.019 300.193 284.599C301.323 285.649 302.193 287.079 304.543 287.789L304.553 287.799ZM210.093 745.949C210.093 746.129 210.083 746.299 210.073 746.479C212.583 746.289 215.093 746.039 217.613 745.939C227.573 745.519 237.533 745.169 247.493 744.739C252.153 744.539 257.343 745.389 261.303 743.589C265.313 741.769 268.173 737.319 271.423 733.919C276.773 728.309 282.033 722.609 287.343 716.949C287.183 716.659 287.023 716.379 286.863 716.089C261.273 726.039 235.683 735.999 210.093 745.949ZM887.633 554.709C887.793 554.449 887.953 554.189 888.113 553.929C887.073 552.969 886.043 552.009 885.003 551.059C874.943 541.889 864.783 532.829 854.903 523.479C852.723 521.419 850.703 520.359 847.783 520.429C839.793 520.619 831.803 520.599 823.823 520.799C820.853 520.869 817.893 521.329 814.933 521.619C814.883 522.009 814.833 522.399 814.773 522.789C839.053 533.429 863.343 544.079 887.623 554.719L887.633 554.709ZM205.493 497.339C181.723 486.899 158.023 476.499 133.703 465.819C134.353 468.729 136.033 469.649 137.303 470.829C146.993 479.819 156.763 488.719 166.433 497.729C168.063 499.239 169.853 499.629 171.893 499.609C181.863 499.479 191.823 499.369 201.783 499.189C202.963 499.169 204.363 499.479 205.483 497.329L205.493 497.339ZM807.633 274.609C802.033 274.609 796.433 274.519 790.843 274.629C781.073 274.819 771.333 275.959 761.553 275.609C759.463 275.529 758.133 276.409 756.843 277.769C749.843 285.129 742.823 292.469 735.833 299.849C735.143 300.579 734.053 301.239 735.083 303.259C759.453 294.389 783.413 284.259 807.633 274.619V274.609ZM717.513 733.209C717.133 733.399 716.763 733.589 716.383 733.779C726.063 758.649 735.753 783.509 745.433 808.379C746.203 804.339 745.973 800.559 745.813 796.779C745.313 785.189 744.773 773.609 744.423 762.019C744.363 760.079 744.193 758.499 742.743 757.129C734.313 749.169 725.913 741.189 717.513 733.219V733.209ZM498.823 814.829C498.423 814.689 498.023 814.549 497.633 814.419C486.993 838.679 476.353 862.929 465.303 888.119C468.213 886.599 469.223 884.829 470.553 883.389C479.643 873.529 488.693 863.619 497.893 853.869C499.443 852.229 499.963 850.569 499.893 848.519C499.543 837.289 499.183 826.069 498.833 814.839L498.823 814.829ZM554.223 133.979C553.243 133.369 552.673 133.699 552.163 134.239C550.423 136.089 548.673 137.939 546.963 139.809C538.883 148.639 530.873 157.529 522.693 166.269C520.993 168.089 520.723 170.039 520.743 172.239C520.813 178.229 520.933 184.219 520.973 190.209C521.013 195.589 520.973 200.969 520.973 206.349C521.413 206.439 521.853 206.539 522.293 206.629C532.903 182.479 543.513 158.319 554.213 133.979H554.223ZM206.923 260.159C230.503 270.449 254.813 278.119 278.293 288.179C271.083 280.649 263.643 273.529 256.183 266.429C254.973 265.279 253.473 264.659 251.783 264.499C236.833 263.059 221.873 261.609 206.923 260.159ZM813.103 759.799C790.223 749.889 766.553 742.309 743.703 732.189C743.393 733.789 744.013 734.269 744.513 734.759C750.723 740.839 756.963 746.899 763.173 752.989C764.943 754.729 767.023 755.479 769.483 755.709C779.393 756.629 789.293 757.729 799.203 758.699C803.823 759.149 808.463 759.439 813.103 759.809V759.799ZM546.623 899.609C546.983 899.409 547.343 899.209 547.703 898.999C537.923 876.209 526.483 854.159 517.223 831.059C517.043 841.489 517.393 851.769 517.703 862.059C517.783 864.609 519.273 866.449 520.743 868.279C523.923 872.229 527.163 876.129 530.403 880.029C535.803 886.559 541.213 893.079 546.623 899.609ZM287.513 743.179C280.053 749.929 272.933 756.849 266.423 764.369C265.153 765.839 264.843 767.559 264.663 769.389C263.623 780.019 262.433 790.649 261.543 801.289C261.233 805.019 260.083 808.709 260.843 813.629C270.553 789.769 277.903 766.109 287.513 743.169V743.179ZM119.813 547.149C142.843 538.379 164.663 527.149 188.443 517.959C186.863 517.419 186.393 517.119 185.923 517.119C176.863 517.189 167.803 517.309 158.743 517.379C156.623 517.399 154.873 518.239 153.303 519.529C142.133 528.729 130.973 537.939 119.813 547.149ZM831.243 503.269C841.523 503.069 851.793 502.859 862.073 502.699C864.233 502.659 865.833 501.599 867.403 500.309C877.213 492.219 887.043 484.169 896.833 476.059C897.673 475.369 899.123 474.849 898.563 472.799C875.843 482.539 853.993 493.839 831.243 503.279V503.269ZM758.843 209.389C749.243 231.929 741.993 255.339 732.163 277.849C733.163 277.539 733.853 277.029 734.433 276.419C740.573 270.009 746.653 263.549 752.843 257.189C755.173 254.799 755.793 251.929 756.073 248.789C756.663 241.939 757.573 235.109 757.983 228.249C758.353 221.999 759.893 215.819 758.853 209.399L758.843 209.389ZM474.343 121.359C473.923 121.599 473.493 121.829 473.073 122.069C482.603 144.149 493.543 165.599 502.633 187.879C502.983 178.139 502.963 168.549 502.993 158.969C502.993 156.439 501.783 154.499 500.253 152.649C495.403 146.789 490.613 140.879 485.763 135.019C481.983 130.449 478.153 125.909 474.353 121.359H474.343ZM502.223 302.599C502.573 302.489 502.923 302.379 503.263 302.269C503.263 291.749 503.263 281.219 503.263 270.699C503.263 269.249 503.283 267.789 503.213 266.339C503.123 264.499 502.323 263.439 500.443 264.569C495.303 267.659 490.233 270.849 485.133 273.989C483.433 275.039 483.013 276.289 484.293 278.029C490.293 286.199 496.243 294.409 502.223 302.599ZM517.593 718.429C517.663 731.219 516.093 743.809 517.153 757.259C523.623 753.279 529.403 749.669 535.233 746.139C537.413 744.819 537.003 743.499 535.713 741.739C530.773 735.059 525.953 728.279 521.043 721.579C520.233 720.479 519.863 718.909 517.593 718.429ZM341.513 690.009C347.083 691.379 352.683 692.849 358.333 694.129C362.973 695.179 363.883 694.469 364.723 689.479C366.103 681.259 367.443 673.029 368.753 664.799C368.883 664.009 369.353 662.959 368.083 662.589C359.273 671.679 350.503 680.739 341.513 690.009ZM680.013 330.459C672.743 328.669 666.783 327.089 660.773 325.769C657.443 325.039 656.573 325.599 655.953 329.109C654.293 338.539 652.853 347.999 651.323 357.449C660.953 348.839 670.783 340.719 680.023 330.459H680.013ZM662.903 651.289C663.223 653.979 664.793 654.799 665.883 655.919C671.703 661.899 677.593 667.829 683.463 673.769C684.743 675.059 686.003 676.359 687.343 677.589C688.713 678.849 690.033 678.959 690.553 676.859C692.003 671.049 693.373 665.219 694.693 659.379C695.223 657.069 694.003 656.109 691.793 655.799C688.203 655.299 684.633 654.599 681.053 654.039C675.173 653.119 669.283 652.249 662.903 651.279V651.289ZM330.603 339.809C328.753 347.719 327.123 354.549 325.553 361.389C325.013 363.739 326.663 364.009 328.413 364.289C337.013 365.639 345.603 367.079 354.203 368.419C355.153 368.569 356.423 369.089 357.073 367.219C348.543 358.389 339.913 349.459 330.593 339.799L330.603 339.809ZM757.133 502.799C753.423 496.789 750.193 491.349 746.743 486.059C744.833 483.129 743.973 483.049 741.033 485.139C733.943 490.169 726.933 495.299 719.893 500.409C719.333 500.809 718.673 501.199 718.813 502.799H757.133ZM302.283 518.369C302.163 517.959 302.033 517.549 301.913 517.129C296.513 517.129 291.113 517.129 285.713 517.129C279.563 517.129 273.423 516.999 267.273 517.129C264.393 517.189 263.803 518.139 265.123 520.399C268.043 525.389 271.183 530.259 274.203 535.189C275.333 537.029 276.643 536.989 278.243 535.819C286.243 529.989 294.273 524.189 302.283 518.379V518.369ZM591.113 520.499C585.683 520.499 580.813 520.519 575.943 520.489C573.873 520.479 572.043 520.919 570.523 522.469C564.973 528.159 559.413 533.849 553.783 539.479C552.083 541.179 552.473 542.439 553.933 544.059C555.843 546.169 557.253 545.069 559.053 543.919C569.083 537.459 578.263 529.759 588.513 523.619C589.403 523.079 590.403 522.539 591.103 520.509L591.113 520.499ZM445.303 558.979C449.693 556.269 452.353 552.759 455.633 549.979C457.903 548.059 458.693 545.699 458.603 542.759C458.413 536.409 458.553 530.049 458.363 523.709C458.293 521.409 459.543 518.269 455.873 517.409C453.383 516.819 452.253 518.189 451.363 522.879C449.233 534.109 447.173 545.349 445.113 556.589C445.023 557.079 445.183 557.629 445.303 558.979ZM520.763 428.609C520.763 434.949 520.763 440.009 520.763 445.069C520.763 446.739 521.073 448.299 522.353 449.539C528.073 455.099 533.773 460.659 539.483 466.229C540.893 467.599 542.283 467.699 543.763 466.319C545.103 465.069 545.723 463.729 544.563 462.029C544.153 461.429 543.773 460.819 543.363 460.219C536.573 450.379 529.783 440.539 522.973 430.709C522.683 430.289 522.223 429.979 520.773 428.609H520.763ZM558.313 575.519C555.753 570.079 551.773 566.409 548.033 562.549C546.953 561.429 545.543 561.129 544.033 561.339C537.193 562.279 530.303 561.769 523.443 561.939C522.363 561.969 521.273 561.999 520.193 562.119C518.763 562.279 517.893 563.139 517.703 564.559C517.503 566.139 517.953 567.489 519.583 568.039C520.943 568.499 522.363 568.859 523.783 569.109C530.363 570.259 536.973 571.299 543.553 572.499C548.493 573.399 553.393 574.499 558.313 575.509V575.519ZM498.153 589.739C500.173 584.219 499.873 578.659 499.633 573.109C499.583 571.989 498.783 571.099 497.943 570.399C491.963 565.369 486.593 559.689 481.033 554.219C479.573 552.779 478.173 552.089 476.343 553.739C474.653 555.259 474.713 556.639 475.933 558.469C482.983 569.019 491.053 578.849 498.153 589.749V589.739ZM461.653 444.549C461.463 444.869 461.283 445.189 461.093 445.509C464.613 449.369 468.153 453.219 471.643 457.109C473.153 458.789 475.033 459.109 477.103 458.799C483.603 457.829 490.153 458.289 496.683 458.139C498.133 458.109 499.593 458.059 501.013 457.839C502.213 457.649 502.853 456.739 502.973 455.539C503.103 454.239 503.053 452.919 501.643 452.279C500.823 451.909 499.923 451.709 499.043 451.519C486.633 448.899 474.003 447.509 461.653 444.539V444.549ZM429.613 497.999C429.723 498.529 429.833 499.059 429.943 499.579C434.423 499.579 438.913 499.409 443.383 499.629C446.753 499.799 449.223 498.699 451.473 496.189C455.823 491.339 460.423 486.709 464.923 481.989C465.543 481.329 466.173 480.679 466.773 480.009C467.823 478.839 467.553 477.739 466.613 476.629C464.993 474.709 463.303 474.939 461.353 476.199C450.573 483.179 440.603 491.309 429.613 497.999ZM574.093 461.539C571.113 464.329 568.293 467.339 565.093 469.859C562.203 472.129 561.023 474.749 561.533 478.329C562.403 484.459 562.193 490.639 562.233 496.809C562.233 498.069 562.293 499.359 562.533 500.589C562.813 502.009 563.873 502.659 565.303 502.719C566.713 502.779 567.823 502.289 568.253 500.859C568.563 499.819 568.683 498.729 568.933 497.669C571.373 487.059 572.113 476.129 574.873 465.569C575.173 464.429 575.593 463.099 574.093 461.529V461.539ZM431.973 545.039C435.883 536.649 436.973 528.029 438.303 519.449C438.643 517.259 437.493 516.439 435.553 516.419C431.383 516.369 427.203 516.259 423.043 516.389C420.203 516.469 419.683 517.179 420.783 519.739C424.423 528.209 428.233 536.609 431.973 545.039ZM588.343 475.109C584.553 483.159 583.303 491.349 582.253 499.569C581.853 502.729 582.563 503.499 585.743 503.649C589.713 503.829 593.703 503.709 597.683 503.749C599.833 503.769 600.793 502.969 599.803 500.769C595.983 492.219 592.163 483.669 588.343 475.109ZM522.663 269.809C521.633 276.629 522.053 295.339 523.403 299.309C528.823 294.959 534.173 290.739 539.423 286.419C541.153 284.999 539.743 283.869 538.693 282.889C534.993 279.449 531.283 276.009 527.513 272.649C526.213 271.489 525.123 269.889 522.663 269.809ZM545.193 588.229C545.213 587.839 545.223 587.449 545.243 587.059C536.913 584.729 528.443 582.999 519.833 581.969C517.753 581.719 516.773 582.829 516.743 584.789C516.673 589.139 516.653 593.479 516.693 597.829C516.723 600.249 518.123 600.459 519.993 599.619C528.393 595.829 536.793 592.039 545.193 588.239V588.229ZM590.053 540.839C581.303 543.859 574.303 549.209 567.323 554.589C565.983 555.629 566.453 556.869 567.363 557.899C570.903 561.929 574.413 565.989 579.163 569.579C582.913 559.689 586.483 550.269 590.053 540.839ZM352.173 649.799C345.433 649.059 339.343 648.389 333.263 647.739C329.703 647.359 329.013 647.839 329.403 651.529C329.983 656.949 329.903 662.389 330.233 667.819C330.293 668.859 330.073 670.049 331.183 670.769C334.653 669.059 348.423 655.459 352.173 649.799ZM649.923 669.069C649.193 675.339 648.393 681.889 647.683 688.459C647.513 689.989 648.403 690.819 649.973 690.759C656.283 690.539 662.603 690.319 668.913 690.079C669.823 690.049 670.813 689.899 671.053 688.839C671.283 687.829 670.443 687.189 669.823 686.569C664.043 680.859 658.243 675.169 652.443 669.479C651.923 668.969 651.323 668.579 649.933 669.069H649.923ZM480.033 588.939C476.103 580.819 470.863 573.959 465.603 567.109C464.783 566.049 463.743 566.109 462.793 566.979C459.343 570.169 455.903 573.379 452.473 576.599C450.813 578.149 451.003 579.259 453.223 580.089C460.683 582.879 468.093 585.769 475.553 588.559C476.693 588.979 477.833 589.739 480.033 588.939ZM541.433 430.339C540.293 431.069 540.493 431.809 540.833 432.439C544.633 439.689 549.483 446.239 554.433 452.739C555.593 454.269 556.803 454.189 558.073 452.939C561.183 449.899 564.353 446.909 567.353 443.769C569.343 441.689 569.223 440.949 566.563 439.899C558.153 436.599 549.673 433.459 541.443 430.329L541.433 430.339ZM430.683 480.399C438.833 476.379 445.823 470.999 452.973 465.839C454.593 464.669 454.443 463.569 453.183 462.289C450.523 459.579 447.913 456.819 445.203 454.159C441.613 450.629 441.253 450.679 439.473 455.199C436.893 461.759 434.383 468.359 431.953 474.979C431.363 476.599 430.203 478.139 430.673 480.399H430.683ZM268.723 498.049C278.523 498.549 287.363 498.199 296.193 497.469C298.633 497.269 299.063 496.229 297.523 494.299C294.263 490.179 290.853 486.179 287.533 482.099C286.053 480.279 284.533 480.249 282.963 481.889C278.203 486.829 273.153 491.519 268.723 498.049ZM473.773 432.559C483.013 435.429 491.173 436.929 499.413 438.059C501.913 438.399 503.223 437.449 503.353 434.919C503.563 430.769 503.783 426.609 503.963 422.459C504.053 420.299 503.193 419.339 500.993 420.329C492.273 424.249 483.553 428.169 473.763 432.559H473.773ZM720.903 522.589C724.723 528.959 729.293 533.119 732.793 538.089C734.723 540.829 735.233 540.779 737.763 538.109C741.863 533.779 745.823 529.319 749.813 524.899C750.393 524.259 751.093 523.569 750.343 522.029C741.093 521.269 731.653 522.989 720.903 522.589ZM667.293 370.249C675.063 371.109 681.613 371.919 688.193 372.529C690.433 372.739 690.733 370.909 690.723 369.189C690.713 365.389 690.653 361.599 690.583 357.799C690.533 354.949 690.283 352.139 688.863 348.489C681.573 355.849 674.813 362.659 667.293 370.249ZM369.963 351.069C370.203 350.699 370.703 350.279 370.753 349.809C371.373 344.049 371.913 338.279 372.493 332.509C372.713 330.339 371.543 329.549 369.583 329.589C363.963 329.709 358.343 329.829 352.723 329.979C351.633 330.009 350.373 330.099 349.913 331.229C349.433 332.429 350.493 333.229 351.243 333.969C356.643 339.339 362.063 344.699 367.483 350.039C368.123 350.669 368.803 351.299 369.963 351.059V351.069ZM497.533 720.339C491.503 725.18 486.613 729.169 481.653 733.069C479.893 734.459 480.043 735.599 481.573 737.009C485.433 740.559 489.203 744.219 493.103 747.719C494.233 748.74 495.303 750.159 497.533 749.949V720.329V720.339ZM531.813 545.749C529.403 540.599 522.323 532.499 518.933 530.889C517.993 534.789 517.873 538.729 517.933 542.689C517.963 544.499 518.493 545.999 520.573 546.059C524.263 546.159 527.993 546.589 531.813 545.749ZM500.753 489.779C501.203 489.579 501.643 489.379 502.093 489.179C502.093 485.219 502.113 481.249 502.083 477.289C502.073 475.969 501.773 474.489 500.283 474.309C496.303 473.829 492.273 473.259 487.623 474.899C492.343 480.139 495.993 485.459 500.763 489.779H500.753ZM500.753 550.409C502.253 543.719 502.183 537.169 502.473 529.879C500.723 531.239 499.523 531.999 498.513 532.979C488.403 542.759 489.113 539.519 497.983 548.909C498.583 549.549 499.163 550.279 500.753 550.409ZM529.833 517.349C532.923 522.379 536.423 525.039 539.333 528.209C540.363 529.329 541.543 529.399 542.643 528.309C544.963 526.019 547.293 523.739 549.513 521.349C550.513 520.269 550.003 519.059 548.713 518.929C542.833 518.329 536.933 517.929 529.823 517.349H529.833ZM520.153 469.299C519.733 469.509 519.323 469.709 518.903 469.919C519.333 476.439 517.153 482.869 518.083 490.699C521.963 486.889 524.913 484.019 527.833 481.109C529.023 479.929 529.293 478.559 528.053 477.279C525.453 474.589 522.783 471.959 520.143 469.309L520.153 469.299ZM490.123 519.609C489.903 519.139 489.693 518.679 489.473 518.209C485.703 518.209 481.923 518.209 478.153 518.209C475.463 518.209 474.193 519.519 474.223 522.209C474.263 525.389 474.223 528.579 474.223 532.589C480.543 528.429 485.163 523.829 490.113 519.609H490.123ZM490.763 502.059C487.203 498.439 484.303 495.469 481.363 492.539C480.173 491.349 478.753 491.099 477.503 492.339C474.973 494.839 471.913 496.899 470.313 500.309C473.653 501.629 485.203 502.719 490.763 502.059ZM530.143 501.189C535.153 502.289 539.313 501.739 543.403 502.059C544.963 502.189 545.693 501.069 545.733 499.629C545.813 496.729 545.863 493.829 545.773 490.929C545.703 488.829 544.453 488.289 542.933 489.639C538.893 493.219 534.333 496.249 530.133 501.189H530.143Z" fill="white"/>
</svg>
