<svg width="947" height="947" viewBox="0 0 947 947" fill="none" xmlns="http://www.w3.org/2000/svg">
<path d="M672.883 652.519C675.373 652.349 677.853 652.229 680.333 651.999C699.323 650.279 718.303 648.559 737.283 646.819C744.513 646.159 751.743 645.439 758.973 644.769C762.243 644.469 765.513 644.159 768.493 646.049C772.783 648.769 773.183 653.339 768.983 656.209C767.003 657.569 764.343 658.379 761.923 658.589C738.593 660.62 715.243 662.43 691.913 664.39C687.063 664.799 682.243 665.569 676.813 666.239C677.603 667.499 677.933 668.289 678.483 668.88C685.813 676.7 693.243 684.419 700.483 692.319C702.433 694.449 704.363 695.019 707.183 694.569C731.553 690.669 755.933 686.819 780.353 683.209C783.823 682.699 787.553 683.32 791.073 683.9C793.293 684.26 794.883 685.97 795.243 688.41C795.623 691.08 794.463 693.239 792.183 694.269C789.413 695.519 786.443 696.569 783.453 697.019C763.533 699.989 743.573 702.77 723.633 705.64C721.123 706 718.633 706.529 715.393 707.109C716.393 708.5 717.033 709.649 717.913 710.589C724.003 717.079 730.213 723.459 736.213 730.029C738.233 732.239 740.293 733.14 743.333 732.859C754.003 731.87 764.683 731.059 775.373 730.319C780.443 729.969 785.533 729.909 790.613 729.809C793.813 729.739 796.683 730.709 799.143 732.829C802.573 735.789 802.563 738.309 799.163 741.449C796.303 744.089 792.813 744.72 789.093 744.88C781.113 745.22 773.133 745.579 765.153 746.069C761.423 746.299 757.713 746.829 753.153 747.309C754.693 749.179 755.613 750.439 756.683 751.569C764.173 759.489 771.763 767.309 779.133 775.329C781.283 777.669 783.433 778.779 786.653 778.549C793.353 778.079 800.073 777.759 806.783 777.749C809.413 777.749 812.223 778.34 814.633 779.39C817.403 780.59 819.183 783.039 818.993 786.339C818.803 789.649 816.703 791.699 813.813 792.699C811.813 793.389 809.573 793.54 807.423 793.64C804.183 793.79 800.933 793.679 796.843 793.679C797.963 795.379 798.683 796.5 799.433 797.599C801.383 800.44 803.493 803.169 805.243 806.12C806.473 808.19 806.073 810.389 804.243 812.069C802.383 813.769 800.163 813.819 798.223 812.429C795.583 810.529 793.113 808.379 790.693 806.199C788.583 804.289 786.643 802.189 783.883 799.429C783.143 803.769 782.653 807.1 781.993 810.4C781.503 812.88 781.023 815.409 780.123 817.759C779.013 820.639 776.733 821.96 774.223 821.64C771.303 821.27 769.693 819.34 769.143 816.67C768.743 814.74 768.623 812.679 768.823 810.719C769.483 804.219 770.183 797.719 771.203 791.279C771.733 787.919 771.073 785.539 768.533 783.079C760.833 775.629 753.433 767.869 745.893 760.259C744.943 759.299 743.833 758.479 742.303 757.179C741.323 764.839 740.573 771.809 739.483 778.729C738.523 784.819 737.293 790.88 735.933 796.89C735.463 798.96 734.573 801.109 733.293 802.779C731.013 805.759 727.403 805.109 726.053 801.589C725.483 800.109 725.273 798.389 725.323 796.799C725.503 791.719 725.843 786.649 726.213 781.579C727.023 770.529 727.853 759.489 728.743 748.439C729.053 744.609 728.183 741.419 725.273 738.62C720.183 733.7 715.373 728.489 710.413 723.429C709.583 722.589 708.603 721.9 707.073 720.63C706.183 728.02 705.493 734.629 704.563 741.209C702.843 753.429 701.063 765.649 699.143 777.839C698.723 780.49 697.823 783.139 696.703 785.589C695.373 788.499 692.983 789.529 690.533 788.789C687.843 787.969 686.773 785.87 686.953 783.339C687.373 777.37 688.053 771.409 688.613 765.449C690.293 747.729 691.853 730.009 693.723 712.309C694.163 708.119 693.043 705.189 690.073 702.219C682.743 694.909 675.773 687.249 668.633 679.749C667.413 678.469 666.113 677.269 664.263 675.459C663.743 677.759 663.303 679.279 663.053 680.829C659.433 703.409 655.913 726.019 652.183 748.579C651.083 755.189 649.433 761.719 647.923 768.259C647.563 769.829 646.943 771.389 646.143 772.789C645.073 774.669 643.333 775.73 641.113 775.14C638.943 774.57 637.813 772.929 637.663 770.739C637.573 769.489 637.673 768.199 637.853 766.949C642.283 736.409 644.933 705.619 651.043 675.319C651.363 673.749 651.403 672.129 651.633 669.979C643.553 668.779 635.693 667.73 627.873 666.41C603.173 662.26 578.493 658.069 553.833 653.709C550.923 653.199 549.333 653.609 547.553 656.14C529.063 682.43 510.423 708.609 491.823 734.829C490.483 736.729 489.143 738.629 487.643 740.739C491.313 743.759 494.673 746.499 497.993 749.279C516.963 765.099 535.943 780.909 554.843 796.809C556.733 798.399 558.373 800.459 559.623 802.599C560.973 804.909 560.933 807.539 559.063 809.739C557.313 811.799 554.793 811.999 552.533 811.299C550.363 810.619 548.193 809.419 546.443 807.949C528.653 792.989 510.963 777.91 493.203 762.92C489.473 759.77 485.563 756.839 481.253 753.439C480.833 754.929 480.383 755.839 480.353 756.769C479.983 767.299 479.773 777.829 479.273 788.349C479.123 791.469 480.303 793.219 482.773 795.009C502.493 809.269 522.103 823.659 541.703 838.099C543.873 839.699 545.893 841.609 547.613 843.689C550.543 847.209 550.873 850.779 548.893 853.109C547.003 855.329 543.753 855.719 539.853 853.759C537.443 852.549 535.193 850.949 533.023 849.329C516.863 837.279 500.753 825.169 484.613 813.099C483.063 811.94 481.383 810.969 479.093 809.479C478.863 814.939 478.633 819.579 478.473 824.229C478.283 829.679 478.363 835.139 477.923 840.559C477.653 843.919 479.123 845.829 481.493 847.859C492.513 857.32 503.423 866.919 514.283 876.569C516.153 878.229 517.963 880.18 519.153 882.349C520.753 885.24 521.783 888.789 519.283 891.539C516.733 894.349 513.153 893.379 510.153 891.999C508.063 891.039 506.233 889.41 504.473 887.88C496.663 881.08 488.933 874.2 481.143 867.39C480.243 866.609 479.143 866.049 477.593 865.029C477.413 867.379 477.193 869.13 477.143 870.88C476.833 881.77 476.663 892.669 476.223 903.559C476.103 906.409 477.053 908.289 479.123 910.13C484.413 914.83 489.533 919.74 494.683 924.599C496.983 926.769 498.673 929.289 498.863 932.599C499.173 938.25 495.273 941.649 489.823 940.029C487.683 939.389 485.733 937.819 483.953 936.349C481.173 934.06 478.603 931.509 475.433 928.599C475.193 930.44 475.013 932.119 474.763 933.779C474.363 936.469 474.113 939.199 473.433 941.819C472.573 945.119 470.763 946.569 468.263 946.549C465.743 946.529 463.953 945.03 463.353 941.64C462.823 938.62 462.773 935.509 462.643 932.439C462.533 929.749 462.623 927.059 462.623 923.259C460.343 924.829 458.803 925.909 457.243 926.969C454.243 929.009 451.353 931.249 448.203 933.029C444.933 934.879 442.113 934.44 440.223 932.349C438.173 930.079 438.233 927.119 440.743 923.929C442.193 922.089 443.913 920.409 445.743 918.949C450.563 915.099 455.473 911.349 460.443 907.689C462.353 906.279 463.273 904.689 463.273 902.229C463.273 890.239 463.453 878.249 463.543 866.269C463.543 865.769 463.343 865.269 463.093 864.049C461.433 865.269 460.053 866.279 458.673 867.289C450.183 873.519 441.743 879.799 433.183 885.929C431.143 887.399 428.803 888.539 426.463 889.479C424.383 890.319 422.043 890.409 420.493 888.349C418.963 886.31 419.563 884.159 421.043 882.339C422.403 880.649 423.823 878.949 425.463 877.539C436.583 867.909 447.703 858.279 458.973 848.829C462.093 846.209 464.123 843.409 464.083 839.189C463.993 830.889 464.053 822.589 464.053 813.589C462.413 814.699 461.103 815.49 459.893 816.41C446.743 826.42 433.643 836.49 420.443 846.42C417.853 848.37 414.973 850.069 412.003 851.329C410.323 852.039 408.033 852.109 406.273 851.599C403.563 850.799 402.663 847.389 404.333 844.779C405.283 843.299 406.723 842.069 408.113 840.929C426.033 826.129 443.983 811.349 461.933 796.589C463.503 795.299 464.833 794.099 464.883 791.729C465.123 778.839 465.523 765.949 465.853 753.059C465.853 752.719 465.703 752.369 465.433 751.219C463.643 752.339 461.993 753.24 460.483 754.339C444.463 765.959 428.523 777.699 412.423 789.209C404.893 794.589 397.093 799.59 389.343 804.64C387.703 805.71 385.783 806.739 383.903 806.929C382.343 807.079 380.243 806.379 379.143 805.289C377.603 803.759 377.993 801.519 379.363 799.799C380.253 798.679 381.393 797.729 382.533 796.849C396.923 785.769 411.263 774.619 425.773 763.709C435.343 756.509 445.183 749.64 454.903 742.63C456.663 741.359 458.443 740.129 460.833 738.439C450.483 724.449 440.123 710.759 430.113 696.819C420.163 682.969 410.553 668.869 400.673 654.699C365.743 660.609 330.583 666.549 295.003 672.569C295.003 673.879 294.893 675.289 295.023 676.679C297.453 703.439 299.933 730.199 302.353 756.969C302.593 759.669 302.783 762.44 302.443 765.099C301.983 768.769 298.963 771.629 296.153 771.679C293.563 771.729 290.443 769.309 289.573 765.979C288.883 763.369 288.743 760.61 288.503 757.91C286.193 731.87 283.923 705.819 281.613 679.779C281.533 678.919 281.213 678.089 280.873 676.689C279.543 677.629 278.503 678.209 277.663 678.989C270.243 685.939 262.923 693.02 255.413 699.87C253.003 702.06 252.393 704.119 252.933 707.429C256.853 731.439 260.543 755.479 264.113 779.539C264.613 782.879 264.323 786.429 263.853 789.809C263.493 792.399 261.893 794.519 258.973 795.019C256.403 795.459 253.943 794.119 252.553 790.989C251.463 788.529 250.663 785.859 250.273 783.199C247.243 762.549 244.353 741.869 241.393 721.209C241.123 719.319 240.593 717.459 240.043 714.949C238.253 716.479 237.003 717.459 235.853 718.539C229.903 724.149 224.103 729.919 217.993 735.339C215.113 737.889 214.313 740.489 214.613 744.329C215.813 759.349 216.573 774.399 217.503 789.439C217.733 793.239 216.773 796.639 214.083 799.439C211.473 802.149 209.113 802.379 206.663 799.559C205.063 797.719 203.813 795.349 203.123 793.009C202.413 790.629 202.513 787.989 202.363 785.459C201.853 776.939 201.423 768.42 200.883 759.9C200.753 757.79 200.323 755.7 199.933 752.92C198.523 754.07 197.663 754.669 196.913 755.38C188.473 763.37 180.103 771.439 171.583 779.339C169.523 781.249 168.693 783.159 168.873 785.979C169.303 792.679 169.463 799.409 169.573 806.12C169.613 808.27 169.473 810.519 168.863 812.559C167.683 816.539 164.163 819.089 160.903 818.809C157.583 818.519 154.673 815.46 154.033 811.37C153.783 809.77 153.883 808.109 153.873 806.479C153.853 803.419 153.873 800.359 153.873 796.489C152.223 797.559 151.103 798.249 150.013 799.009C147.183 800.969 144.453 803.08 141.533 804.89C139.503 806.15 137.283 805.969 135.523 804.209C133.543 802.229 133.643 799.779 135.113 797.729C137.113 794.939 139.473 792.399 141.783 789.849C143.563 787.889 145.513 786.089 148.053 783.559C143.853 782.889 140.673 782.5 137.543 781.859C134.713 781.279 131.853 780.65 129.163 779.64C126.753 778.74 125.533 776.669 125.783 773.989C126.033 771.289 127.753 769.639 130.203 769.079C132.293 768.599 134.543 768.419 136.683 768.62C142.643 769.18 148.603 769.819 154.503 770.799C158.743 771.509 161.983 770.859 165.143 767.499C172.113 760.099 179.553 753.149 186.773 745.989C187.863 744.909 188.833 743.689 190.303 742.039C182.963 741.109 176.343 740.43 169.773 739.4C163.503 738.42 157.263 737.18 151.063 735.839C148.973 735.389 146.743 734.639 145.113 733.339C143.933 732.399 143.023 730.269 143.173 728.789C143.293 727.599 145.013 726.14 146.343 725.62C147.953 724.99 149.923 725 151.713 725.109C160.413 725.609 169.113 726.189 177.803 726.819C185.043 727.349 192.273 728.019 199.513 728.549C202.483 728.769 205.303 728.319 207.583 726.089C213.563 720.249 219.563 714.44 225.533 708.599C225.873 708.259 225.993 707.699 226.433 706.779C220.063 706.009 213.983 705.379 207.923 704.529C195.523 702.799 183.133 701.01 170.743 699.15C168.423 698.8 166.113 698.18 163.903 697.39C159.543 695.85 157.813 693.43 158.573 690.38C159.273 687.58 161.723 686.349 166.133 686.739C172.643 687.319 179.143 687.969 185.653 688.609C202.093 690.209 218.553 691.729 234.973 693.499C239.113 693.949 242.093 692.939 245.083 689.929C252.903 682.089 261.093 674.619 269.133 666.989C269.903 666.259 270.603 665.439 271.743 664.219C270.183 663.729 269.093 663.249 267.963 663.059C245.383 659.429 222.793 655.91 200.233 652.17C193.263 651.02 186.373 649.329 179.473 647.779C177.903 647.429 176.343 646.809 174.913 646.069C173.013 645.079 171.813 643.429 172.223 641.179C172.683 638.699 174.513 637.579 176.873 637.289C177.763 637.179 178.693 637.26 179.583 637.38C202.253 640.43 224.923 643.409 247.573 646.599C255.653 647.74 263.663 649.379 271.713 650.759C273.313 651.029 274.933 651.179 277.033 651.439C282.623 617.339 288.183 583.43 293.723 549.65C264.863 529.15 235.883 508.559 206.033 487.359C205.613 488.079 205.183 489.109 204.493 489.939C186.623 511.459 168.723 532.949 150.833 554.449C148.723 556.989 146.563 559.399 143.033 559.979C138.483 560.729 135.183 558.16 135.943 553.66C136.393 550.98 137.883 548.179 139.663 546.059C154.683 528.089 169.903 510.269 185.003 492.369C188.013 488.799 190.793 485.029 194.163 480.729C192.153 480.439 191.003 480.169 189.843 480.129C179.683 479.769 169.513 479.509 159.353 479.079C156.403 478.949 154.453 479.709 152.573 482.309C138.453 501.909 124.163 521.379 109.803 540.799C107.783 543.539 105.293 546.03 102.643 548.17C99.7827 550.47 96.6728 550.46 94.5728 548.88C92.2428 547.12 91.6127 544.189 93.3327 540.469C94.5327 537.859 96.1628 535.409 97.8828 533.089C110.033 516.779 122.263 500.529 134.433 484.239C135.493 482.819 136.393 481.269 137.733 479.219C136.053 478.979 134.913 478.709 133.763 478.669C124.873 478.369 115.963 478.249 107.083 477.789C103.863 477.629 101.773 478.659 99.6727 481.119C89.9927 492.429 80.1028 503.559 70.2628 514.739C67.6828 517.669 64.7227 519.969 60.6127 520.309C55.9627 520.689 53.9128 518.569 54.3528 513.809C54.6828 510.169 56.6228 507.419 58.9828 504.789C65.9028 497.089 72.7327 489.309 79.5627 481.529C80.5027 480.459 81.2628 479.229 82.4528 477.589C80.8528 477.319 79.7127 476.999 78.5627 476.959C67.1227 476.609 55.6827 476.399 44.2527 475.919C41.2227 475.789 39.1927 476.729 37.2127 478.979C32.6627 484.159 27.9927 489.269 23.0627 494.079C21.0727 496.019 18.4227 497.819 15.7827 498.419C9.36275 499.879 5.13274 494.549 7.68274 488.459C8.49274 486.529 10.1127 484.899 11.5327 483.279C13.7827 480.689 16.1727 478.229 18.8427 475.339C17.4027 475.099 16.1028 474.889 14.7928 474.659C11.4028 474.079 7.97273 473.679 4.64273 472.849C2.40273 472.289 0.812744 470.619 0.812744 468.119C0.812744 465.339 2.64275 463.749 5.13275 463.239C7.60275 462.739 10.1627 462.579 12.6927 462.499C16.2327 462.379 19.7828 462.469 24.3828 462.469C21.6528 458.699 19.4827 455.869 17.5027 452.899C16.1027 450.799 14.7028 448.629 13.7628 446.299C12.8228 443.989 13.1827 441.579 15.2827 439.859C17.3427 438.179 19.7327 438.049 21.8627 439.499C23.9327 440.909 25.9928 442.529 27.5728 444.459C31.7228 449.509 35.6628 454.729 39.5728 459.959C40.9628 461.819 42.4227 462.909 44.9327 462.919C57.1027 462.959 69.2727 463.179 81.4327 463.319C81.9027 463.319 82.3727 463.059 83.4227 462.749C82.1527 461.079 81.0827 459.719 80.0527 458.319C73.6327 449.519 67.1527 440.769 60.8727 431.879C59.4327 429.839 58.2428 427.429 57.7328 425.009C57.4228 423.559 58.2627 421.469 59.2827 420.239C60.6027 418.649 62.7427 419.069 64.2527 420.239C66.5327 422.019 68.7927 423.899 70.6827 426.079C80.2027 437.049 89.6328 448.099 99.0128 459.199C101.503 462.149 104.323 463.879 108.333 463.839C115.593 463.769 122.863 463.979 130.123 464.039C131.133 464.039 132.143 463.839 133.873 463.649C132.493 461.719 131.513 460.279 130.453 458.899C120.873 446.339 111.223 433.829 101.723 421.199C99.6628 418.459 97.9627 415.419 96.3727 412.369C95.6527 410.989 95.2727 409.229 95.3627 407.679C95.5627 403.999 99.3227 402.039 102.553 403.999C104.203 404.999 105.513 406.649 106.773 408.169C121.463 425.949 136.123 443.749 150.773 461.569C152.183 463.289 153.543 464.659 156.113 464.709C168.463 464.939 180.803 465.369 193.153 465.699C193.993 465.719 194.843 465.559 196.573 465.409C195.143 463.249 194.143 461.599 193.023 460.049C181.713 444.469 170.283 428.979 159.103 413.309C153.413 405.339 148.093 397.089 142.723 388.889C141.643 387.249 140.583 385.309 140.433 383.439C140.313 381.909 141.223 379.969 142.303 378.769C143.673 377.259 145.733 377.649 147.283 378.839C148.553 379.819 149.683 381.049 150.673 382.329C161.423 396.289 172.243 410.189 182.823 424.279C190.453 434.439 197.753 444.849 205.193 455.159C206.353 456.769 207.483 458.389 208.793 460.259C236.833 440.099 264.613 420.129 292.683 399.959C286.833 365.359 280.883 330.189 274.843 294.499C267.913 295.119 261.083 295.719 254.253 296.329C235.443 297.999 216.643 299.659 197.833 301.339C194.213 301.659 190.613 302.139 186.993 302.369C185.203 302.479 183.323 302.449 181.593 302.039C178.353 301.259 176.053 298.709 175.873 296.169C175.693 293.589 177.563 290.759 180.693 289.569C182.523 288.869 184.553 288.519 186.523 288.379C197.933 287.539 209.363 286.969 220.753 285.979C235.943 284.659 251.113 283.039 266.283 281.509C267.683 281.369 269.043 280.889 270.823 280.479C270.063 279.419 269.633 278.639 269.033 278.009C261.703 270.199 254.293 262.449 247.023 254.579C245.223 252.629 243.433 252.039 240.803 252.459C216.433 256.359 192.053 260.219 167.643 263.839C164.163 264.359 160.443 263.799 156.903 263.269C154.433 262.899 152.693 261.049 152.353 258.439C152.003 255.769 153.483 253.729 155.693 252.699C158.283 251.489 161.093 250.499 163.913 250.079C184.203 247.069 204.513 244.239 224.813 241.329C227.143 240.999 229.443 240.479 232.383 239.929C231.303 238.509 230.583 237.349 229.663 236.379C223.943 230.289 217.963 224.429 212.513 218.109C209.513 214.629 206.353 214.019 202.023 214.379C187.553 215.589 173.053 216.359 158.553 217.269C154.803 217.509 151.333 216.729 148.423 214.159C145.213 211.319 145.153 208.919 148.223 205.909C151.313 202.879 155.193 202.359 159.273 202.129C169.963 201.529 180.653 200.799 191.343 200.089C192.173 200.029 193.003 199.789 194.413 199.519C193.263 198.109 192.553 197.119 191.733 196.249C183.873 187.939 175.923 179.699 168.153 171.299C166.263 169.249 164.363 168.309 161.533 168.489C154.463 168.939 147.383 169.329 140.313 169.259C137.553 169.229 134.433 168.479 132.133 167.019C127.073 163.809 127.593 157.399 133.003 154.799C135.033 153.819 137.523 153.589 139.833 153.439C143.243 153.219 146.683 153.379 151.293 153.379C149.453 151.039 148.123 149.469 146.923 147.799C145.433 145.749 143.853 143.719 142.683 141.489C141.523 139.289 141.423 136.879 143.493 134.989C145.593 133.079 147.943 133.439 149.993 134.909C152.343 136.599 154.513 138.549 156.643 140.519C158.873 142.589 160.963 144.809 163.793 147.629C164.683 142.569 165.343 138.379 166.193 134.209C166.583 132.269 167.153 130.319 167.963 128.529C168.953 126.369 170.863 125.299 173.273 125.449C175.693 125.599 177.573 126.919 178.103 129.199C178.713 131.809 179.113 134.599 178.873 137.239C178.323 143.379 177.483 149.509 176.483 155.599C175.943 158.909 176.463 161.359 179.033 163.849C186.863 171.429 194.393 179.319 202.043 187.069C202.893 187.939 203.843 188.709 205.413 190.119C206.233 183.449 206.773 177.559 207.723 171.739C208.923 164.399 210.383 157.099 211.923 149.829C212.323 147.929 213.143 145.949 214.303 144.419C216.723 141.219 220.723 141.959 221.753 145.819C222.393 148.229 222.583 150.869 222.413 153.369C221.333 168.399 220.113 183.409 218.893 198.429C218.633 201.619 218.923 204.669 221.213 207.059C227.123 213.219 233.133 219.279 239.123 225.359C239.343 225.579 239.783 225.589 240.643 225.869C240.923 223.859 241.203 221.939 241.463 220.019C243.633 204.009 245.743 187.989 248.003 171.989C248.403 169.129 249.163 166.289 250.103 163.559C251.593 159.189 254.053 157.489 257.103 158.269C259.973 158.999 261.263 161.839 260.743 166.369C260.583 167.809 260.273 169.239 260.133 170.689C258.013 192.739 255.883 214.789 253.883 236.849C253.733 238.489 254.003 240.739 255.013 241.839C264.113 251.699 273.413 261.359 283.313 271.759C283.943 269.249 284.523 267.459 284.823 265.629C287.843 246.629 290.713 227.599 293.853 208.609C295.423 199.129 297.423 189.709 299.343 180.289C299.733 178.359 300.483 176.459 301.323 174.669C302.243 172.729 303.903 171.469 306.143 171.849C308.573 172.259 309.883 173.969 310.073 176.419C310.163 177.499 310.143 178.609 309.993 179.679C306.383 205.939 302.793 232.199 299.103 258.449C298.443 263.119 297.363 267.729 296.533 272.369C296.283 273.759 296.223 275.179 296.063 276.719C330.143 282.299 363.923 287.829 397.783 293.379C418.193 264.649 438.783 235.669 460.213 205.509C459.393 205.079 458.123 204.669 457.173 203.879C435.793 186.129 414.403 168.389 393.143 150.499C390.883 148.599 388.693 146.009 387.723 143.299C385.983 138.439 389.163 134.809 394.253 135.699C396.763 136.139 399.353 137.609 401.343 139.279C418.883 153.969 436.273 168.839 453.763 183.599C457.743 186.959 461.933 190.089 466.833 193.949C467.933 180.209 468.133 167.449 468.263 154.649C459.703 148.499 451.253 142.529 442.923 136.409C430.193 127.059 417.473 117.679 404.903 108.109C402.373 106.179 400.343 103.479 398.453 100.859C397.003 98.8395 396.913 96.3793 398.583 94.2393C400.393 91.9294 402.983 91.3794 405.443 92.4594C408.563 93.8294 411.603 95.5494 414.343 97.5794C430.533 109.579 446.623 121.719 462.763 133.799C464.333 134.969 466.003 136.009 468.153 137.469C468.493 135.679 468.883 134.529 468.913 133.369C469.183 124.109 469.243 114.839 469.673 105.589C469.813 102.529 468.173 101.029 466.203 99.3194C454.973 89.5394 443.793 79.7094 432.623 69.8694C429.833 67.4194 427.693 64.5794 427.203 60.7094C426.603 56.0194 428.543 53.7994 433.203 53.9893C436.883 54.1394 439.693 55.9795 442.323 58.3495C449.893 65.1395 457.513 71.8795 465.143 78.5995C466.463 79.7595 467.943 80.7194 469.593 81.9594C469.953 81.0994 470.303 80.6594 470.313 80.2094C470.693 68.0494 470.983 55.8795 471.443 43.7195C471.553 40.9495 470.823 38.9795 468.673 37.0995C463.613 32.6895 458.713 28.0795 453.923 23.3595C452.153 21.6195 450.533 19.5294 449.463 17.2994C447.823 13.8994 448.653 10.3494 450.983 8.27939C453.173 6.32939 457.113 5.97938 460.163 7.89938C462.123 9.13938 463.733 10.9294 465.433 12.5494C467.273 14.2994 469.013 16.1594 470.833 17.9294C471.033 18.1294 471.493 18.0694 472.183 18.1994C472.613 15.0394 472.983 11.8695 473.493 8.71945C473.753 7.11945 474.123 5.50935 474.693 3.98935C475.523 1.76935 477.123 0.349359 479.653 0.499359C482.203 0.649359 483.763 2.34944 484.143 4.57944C484.723 7.95944 484.843 11.4294 485.013 14.8694C485.143 17.5194 485.043 20.1894 485.043 23.9893C488.693 21.3393 491.363 19.2694 494.163 17.4094C496.423 15.9194 498.773 14.5294 501.213 13.3694C503.383 12.3394 505.533 12.8794 507.223 14.5694C509.133 16.4694 509.363 18.9495 508.123 21.1095C506.883 23.2695 505.213 25.3294 503.303 26.9194C498.423 30.9794 493.403 34.8894 488.223 38.5694C485.413 40.5594 484.333 42.7794 484.393 46.2694C484.613 58.2394 484.483 70.2094 484.483 82.8994C485.963 81.9394 487.103 81.2794 488.163 80.4994C496.943 74.0594 505.663 67.5394 514.503 61.1794C516.543 59.7094 518.893 58.5994 521.223 57.6294C523.333 56.7394 525.553 56.7394 527.173 58.7694C528.843 60.8694 528.093 62.9394 526.663 64.7393C525.193 66.5793 523.623 68.3794 521.843 69.9094C510.713 79.5194 499.433 88.9694 488.403 98.6994C486.353 100.509 483.983 103.249 483.843 105.689C483.303 114.689 483.623 123.749 483.623 133.509C485.323 132.369 486.633 131.579 487.843 130.659C500.543 120.959 513.193 111.199 525.943 101.569C528.683 99.4994 531.693 97.7394 534.753 96.1794C536.293 95.3894 538.243 94.9594 539.953 95.0894C543.443 95.3394 545.333 98.8494 543.553 101.869C542.483 103.679 540.763 105.169 539.103 106.539C521.333 121.239 503.523 135.899 485.713 150.549C484.133 151.849 482.813 153.139 482.763 155.449C482.503 168.339 482.133 181.229 481.823 194.119C481.823 194.449 482.033 194.789 482.363 195.799C483.913 194.849 485.433 194.069 486.793 193.079C502.383 181.779 517.873 170.359 533.543 159.169C541.663 153.369 550.043 147.939 558.383 142.449C560.023 141.369 561.933 140.589 563.823 140.069C565.913 139.499 568.143 140.139 568.823 142.259C569.293 143.739 568.783 145.689 568.273 147.289C567.983 148.209 566.893 148.949 566.033 149.589C543.583 166.559 521.123 183.529 498.623 200.439C495.013 203.149 491.213 205.609 486.843 208.639C497.253 222.719 507.603 236.399 517.613 250.339C527.573 264.199 537.183 278.299 547.023 292.409C582.023 286.489 617.203 280.539 652.923 274.489C652.633 271.129 652.353 267.739 652.043 264.359C649.963 241.029 647.883 217.689 645.783 194.359C645.523 191.469 645.043 188.589 644.883 185.689C644.593 180.349 647.373 175.909 651.083 175.499C654.973 175.069 658.413 179.199 658.903 184.919C661.073 210.429 663.213 235.939 665.413 261.439C665.663 264.299 666.193 267.129 666.673 270.559C668.123 269.499 669.183 268.889 670.053 268.069C677.473 261.119 684.773 254.029 692.323 247.209C694.813 244.959 695.273 242.719 694.773 239.559C690.903 215.179 687.123 190.779 683.493 166.359C683.053 163.389 683.463 160.219 683.913 157.209C684.313 154.549 685.963 152.539 688.823 152.029C691.313 151.589 693.923 152.989 695.173 156.159C696.413 159.329 697.263 162.729 697.743 166.109C700.133 182.639 702.313 199.199 704.663 215.729C705.393 220.899 706.403 226.039 707.393 231.869C708.853 230.889 709.913 230.369 710.733 229.589C717.223 223.499 723.573 217.259 730.163 211.279C732.563 209.099 733.343 206.869 733.103 203.669C732.003 189.009 731.113 174.329 730.203 159.649C729.963 155.809 730.143 152.029 732.683 148.759C735.853 144.679 738.593 144.569 741.983 148.409C744.433 151.179 744.943 154.499 745.143 158.019C745.733 168.529 746.433 179.039 747.103 189.549C747.183 190.779 747.403 191.999 747.643 193.879C749.013 192.929 750.063 192.379 750.893 191.589C759.353 183.619 767.723 175.549 776.243 167.639C778.153 165.869 778.943 164.059 778.803 161.469C778.413 154.579 778.013 147.679 778.103 140.779C778.143 137.819 778.743 134.499 780.213 131.999C783.403 126.579 790.003 127.109 792.693 132.819C793.583 134.699 793.793 136.999 793.913 139.129C794.103 142.699 793.963 146.279 793.963 150.839C796.333 149.029 797.953 147.699 799.663 146.509C801.893 144.959 804.113 143.379 806.483 142.079C808.603 140.919 810.773 141.289 812.423 143.139C814.093 145.009 814.073 147.229 812.713 149.179C811.053 151.549 809.183 153.789 807.223 155.909C805.033 158.279 802.633 160.459 799.533 163.489C803.253 164.099 806.013 164.519 808.753 165.009C811.433 165.499 814.143 165.869 816.743 166.649C820.483 167.769 822.443 170.419 822.023 173.259C821.633 175.979 819.393 177.889 815.773 178.339C813.983 178.559 812.133 178.639 810.343 178.449C804.753 177.859 799.133 177.359 793.603 176.359C789.173 175.559 785.753 176.029 782.473 179.679C774.713 188.289 766.503 196.499 758.353 204.999C759.023 205.139 760.133 205.419 761.253 205.589C772.543 207.349 783.853 209.009 795.123 210.889C797.583 211.299 800.003 212.309 802.273 213.399C804.183 214.319 805.593 216.219 804.643 218.299C803.993 219.709 802.313 221.129 800.813 221.549C798.603 222.159 796.123 222.119 793.783 221.949C779.113 220.919 764.453 219.849 749.803 218.619C745.573 218.269 741.933 218.809 738.923 222.119C733.433 228.149 727.833 234.069 722.053 240.289C724.043 240.569 726.593 240.949 729.133 241.299C745.133 243.499 761.153 245.619 777.133 247.959C780.143 248.399 783.113 249.479 785.943 250.649C788.253 251.609 789.703 253.539 789.293 256.279C788.933 258.709 786.783 260.309 783.673 260.489C782.783 260.539 781.873 260.359 780.973 260.269C764.163 258.689 747.353 257.129 730.553 255.519C724.413 254.929 718.263 254.309 712.143 253.529C708.683 253.089 706.023 253.759 703.383 256.399C695.813 263.979 687.923 271.239 680.103 278.559C678.793 279.779 677.173 280.669 675.693 281.709C675.953 282.149 676.213 282.579 676.463 283.019C677.583 283.349 678.683 283.799 679.823 283.979C700.073 287.229 720.343 290.339 740.573 293.719C749.693 295.239 758.733 297.229 767.793 299.149C769.713 299.559 771.813 300.179 773.253 301.389C774.443 302.379 775.533 304.519 775.283 305.909C775.033 307.299 773.233 308.669 771.803 309.499C770.843 310.059 769.303 309.849 768.073 309.659C737.043 304.869 705.673 302.469 674.873 296.089C673.513 295.809 672.073 295.929 670.653 295.859C665.093 329.829 659.583 363.459 654.033 397.399C682.643 417.729 711.743 438.409 741.563 459.589C742.173 458.719 742.813 457.629 743.603 456.679C761.373 435.309 779.153 413.959 796.933 392.599C799.163 389.919 801.463 387.359 805.273 387.009C809.443 386.619 811.853 388.769 811.883 392.959C811.903 396.289 810.133 398.739 808.093 401.149C792.003 420.129 775.953 439.129 759.923 458.159C757.853 460.609 755.993 463.239 753.473 466.519C755.793 466.709 757.153 466.869 758.503 466.909C768.483 467.259 778.473 467.519 788.453 467.949C791.423 468.079 793.353 467.269 795.223 464.679C809.343 445.079 823.613 425.599 837.993 406.199C840.113 403.329 842.853 400.819 845.633 398.559C847.843 396.769 850.673 396.289 853.213 398.229C855.793 400.199 855.813 403.099 854.753 405.669C853.593 408.479 851.943 411.159 850.123 413.609C837.993 429.929 825.743 446.169 813.563 462.459C812.403 464.019 811.423 465.719 810.043 467.849C812.003 468.109 813.353 468.399 814.713 468.449C823.613 468.729 832.513 468.839 841.393 469.259C844.303 469.399 846.033 468.259 847.833 466.169C857.553 454.889 867.413 443.729 877.243 432.549C879.683 429.779 882.423 427.469 886.253 426.839C891.273 426.019 893.453 427.929 893.323 432.939C893.233 436.669 891.303 439.409 888.953 442.039C882.173 449.619 875.433 457.229 868.713 464.869C867.563 466.179 866.603 467.669 865.113 469.669C866.473 469.869 867.103 470.029 867.743 470.049C879.723 470.399 891.713 470.659 903.683 471.119C906.483 471.229 908.423 470.429 910.283 468.299C914.703 463.239 919.313 458.339 924.023 453.549C925.773 451.769 927.853 450.159 930.073 449.069C933.353 447.459 937.113 448.329 939.123 450.579C941.173 452.869 941.573 456.579 939.533 459.719C938.083 461.959 935.983 463.799 934.113 465.759C932.383 467.559 930.573 469.279 928.143 471.679C932.543 472.279 936.043 472.679 939.513 473.269C941.103 473.539 942.933 473.799 944.093 474.749C945.343 475.769 946.663 477.609 946.633 479.059C946.593 480.499 945.213 482.419 943.883 483.189C942.263 484.119 940.083 484.329 938.123 484.399C933.633 484.559 929.123 484.449 923.433 484.449C925.193 486.999 926.393 488.679 927.543 490.389C929.563 493.399 931.773 496.309 933.513 499.479C935.203 502.569 934.713 505.099 932.713 506.969C930.643 508.899 927.593 509.029 924.723 506.869C922.713 505.359 920.873 503.529 919.293 501.569C915.423 496.759 911.733 491.809 908.023 486.879C906.763 485.199 905.443 484.119 903.113 484.109C890.763 484.089 878.413 483.889 866.063 483.779C865.763 483.779 865.453 484.079 864.613 484.509C865.643 485.919 866.643 487.299 867.653 488.679C874.063 497.479 880.533 506.239 886.833 515.119C888.173 517.009 889.123 519.249 889.893 521.449C890.573 523.399 890.393 525.43 888.513 526.859C886.573 528.329 884.623 527.769 883.003 526.469C880.883 524.779 878.803 522.969 877.033 520.929C867.533 509.939 858.093 498.899 848.713 487.799C846.223 484.859 843.413 483.109 839.413 483.149C831.963 483.219 824.523 483.039 817.073 482.989C816.233 482.989 815.383 483.179 813.813 483.359C815.293 485.379 816.403 486.949 817.563 488.469C827.043 500.879 836.573 513.25 845.973 525.729C848.033 528.469 849.823 531.469 851.373 534.529C853.293 538.319 852.803 541.24 850.463 542.89C847.943 544.67 845.033 543.829 842.063 540.269C832.643 528.969 823.253 517.649 813.893 506.299C808.233 499.429 802.653 492.499 797.063 485.569C795.543 483.679 794.033 482.289 791.233 482.249C779.063 482.079 766.903 481.629 754.743 481.289C753.873 481.269 753.003 481.389 751.233 481.489C752.563 483.589 753.503 485.249 754.613 486.789C766.233 502.809 777.973 518.75 789.483 534.859C794.863 542.39 799.853 550.189 804.903 557.949C805.973 559.589 806.753 561.5 807.273 563.4C807.843 565.48 807.153 567.329 805.153 568.519C803.303 569.619 801.593 569.129 800.103 567.949C798.983 567.059 798.023 565.929 797.143 564.789C786.063 550.399 774.923 536.059 764.003 521.549C756.803 511.979 749.933 502.149 742.923 492.429C741.653 490.669 740.423 488.889 738.943 486.779C710.813 506.989 682.903 527.049 655.043 547.069C660.933 581.839 666.863 616.869 672.893 652.479L672.883 652.519ZM481.843 224.289C481.533 224.419 481.223 224.539 480.903 224.669C478.813 295.139 476.723 365.599 474.623 436.069C474.993 436.159 475.373 436.259 475.743 436.349C476.513 435.029 477.343 433.749 478.033 432.399C489.433 410.079 500.013 387.379 509.633 364.229C517.503 345.289 525.153 326.239 533.793 307.649C536.773 301.249 536.333 297.449 532.033 291.889C516.053 271.199 500.803 249.949 485.273 228.909C484.133 227.369 482.983 225.829 481.833 224.299L481.843 224.289ZM723.563 481.069C722.453 480.669 721.993 480.369 721.533 480.349C651.513 478.459 581.503 476.579 511.483 474.719C511.373 474.719 511.203 474.889 511.153 475.019C511.093 475.169 511.143 475.359 511.143 475.709C512.323 476.349 513.573 477.079 514.853 477.729C537.513 489.219 560.503 499.969 583.973 509.699C602.733 517.469 621.573 525.119 639.993 533.649C646.173 536.509 649.833 536.139 655.263 531.949C676.223 515.759 697.753 500.299 719.063 484.559C720.453 483.539 721.793 482.449 723.563 481.069ZM448.013 446.589C448.363 446.309 448.713 446.019 449.063 445.739C448.363 443.519 447.643 441.299 446.953 439.069C433.153 394.449 413.133 352.219 396.943 308.519C396.063 306.149 394.573 304.959 391.763 304.579C370.023 301.619 348.303 298.449 326.593 295.279C318.763 294.139 310.953 292.809 303.133 291.569C302.973 291.829 302.823 292.089 302.663 292.349C351.113 343.769 399.563 395.189 448.013 446.599V446.589ZM465.803 722.65C466.183 722.49 466.553 722.32 466.933 722.16C468.193 651.92 471.623 581.729 472.193 511.359C470.873 512.559 470.043 513.859 469.323 515.219C447.113 557.129 431.093 601.81 411.413 644.859C410.423 647.01 410.673 648.719 412.223 650.799C429.103 673.299 445.823 695.909 462.603 718.489C463.653 719.899 464.743 721.27 465.803 722.66V722.65ZM446.793 499.419C446.533 499.099 446.273 498.779 446.023 498.459C445.333 498.589 444.603 498.629 443.943 498.869C424.313 505.879 404.553 512.569 385.093 520.029C359.703 529.769 334.563 540.159 309.293 550.199C306.443 551.329 305.203 553.029 304.773 556.179C302.093 576.129 299.193 596.059 296.283 615.979C294.893 625.449 293.313 634.9 291.623 645.63C343.953 596.33 395.373 547.869 446.793 499.409V499.419ZM501.073 448.869C503.563 448.129 505.423 447.599 507.263 447.019C538.743 436.989 569.313 424.559 599.873 412.089C612.623 406.889 625.493 401.949 638.293 396.859C640.493 395.979 642.243 395.039 642.663 392.039C646.433 365.459 650.423 338.909 654.333 312.359C654.793 309.249 655.213 306.129 655.723 302.509C649.513 306.709 504.293 444.069 501.083 448.869H501.073ZM224.233 465.919C231.513 467.469 432.043 472.759 436.793 471.519C434.923 470.529 433.363 469.699 431.793 468.889C406.333 455.709 380.123 444.159 353.673 433.119C338.113 426.629 322.433 420.379 307.173 413.229C301.443 410.549 297.953 410.849 292.853 414.779C271.723 431.039 250.083 446.639 228.643 462.489C227.273 463.509 225.943 464.579 224.233 465.909V465.919ZM645.113 655.64C639.543 647.59 502.973 503.579 498.603 501.129C499.073 502.769 499.393 504.159 499.853 505.499C503.413 515.979 506.643 526.589 510.653 536.899C523.873 570.879 537.393 604.749 550.763 638.679C551.733 641.149 553.303 642.119 556.023 642.489C575.263 645.069 594.483 647.82 613.693 650.64C623.903 652.14 634.083 653.88 645.113 655.65V655.64ZM489.733 523.869C489.353 523.909 488.963 523.959 488.583 523.999C486.703 591.449 481.533 658.79 481.543 727.38C482.793 725.91 483.303 725.409 483.693 724.829C501.423 698.489 519.123 672.129 536.913 645.829C538.583 643.359 538.363 641.44 537.083 638.88C519.553 603.77 504.743 567.529 492.073 530.399C491.323 528.209 490.513 526.039 489.733 523.869ZM220.593 481.489C221.053 482.109 221.133 482.289 221.273 482.389C248.193 500.559 275.123 518.699 302.023 536.899C304.143 538.329 305.913 538.079 308.053 536.989C314.193 533.859 320.373 530.789 326.643 527.929C356.853 514.139 387.563 501.559 419.083 491.039C420.603 490.529 422.053 489.839 424.463 488.859C414.683 487.029 230.933 480.499 220.593 481.489ZM466.013 220.579C464.973 221.339 464.463 221.549 464.203 221.929C446.253 248.569 428.333 275.229 410.353 301.859C408.893 304.029 409.353 305.779 410.413 307.889C428.443 343.989 443.623 381.269 456.513 419.489C457.003 420.939 457.693 422.329 458.283 423.739C460.813 356.089 466.223 288.739 466.013 220.579ZM427.513 449.419C381.493 399.469 337.463 348.069 288.943 299.599C289.063 301.289 289.043 302.119 289.203 302.909C295.283 334.059 301.413 365.209 307.413 396.379C307.983 399.359 309.603 400.519 312.253 401.399C349.833 413.899 386.233 429.259 421.753 446.749C423.653 447.679 425.593 448.539 427.513 449.429V449.419ZM520.183 497.649C566.153 547.559 610.133 599.019 658.463 647.189C658.613 645.949 658.743 645.579 658.683 645.249C652.533 613.749 646.343 582.259 640.263 550.739C639.693 547.789 638.093 546.559 635.433 545.679C597.863 533.189 561.483 517.809 525.953 500.359C524.043 499.419 522.103 498.549 520.183 497.649ZM647.223 289.159L646.633 287.919C614.823 294.299 583.013 300.699 551.183 307.029C548.393 307.589 546.953 308.949 546.023 311.739C533.313 349.829 517.783 386.769 499.943 422.739C499.183 424.269 498.533 425.849 497.833 427.409C547.763 381.259 599.323 337.169 647.223 289.149V289.159ZM727.293 465.789C726.303 464.699 726.103 464.369 725.813 464.169C699.173 446.219 672.513 428.299 645.883 410.309C643.613 408.779 641.713 408.939 639.353 410.159C633.393 413.249 627.363 416.219 621.263 418.999C590.873 432.859 560.013 445.549 528.293 456.089C526.773 456.589 524.913 456.729 523.533 458.789C591.593 460.519 658.883 465.869 727.283 465.779L727.293 465.789ZM449.533 520.009C399.623 566.019 348.143 609.97 300.193 658.14C300.923 658.34 301.103 658.45 301.253 658.42C333.123 652.25 364.993 646.06 396.873 639.9C399.503 639.39 400.733 637.9 401.573 635.38C414.203 597.43 429.703 560.679 447.393 524.819C448.173 523.249 448.823 521.609 449.533 520.009Z" fill="#79E6F9"/>
</svg>
